<svg xmlns="http://www.w3.org/2000/svg" width="20" height="19" viewBox="0 0 20 19">
  <path fill="#323334" d="M1122.99633,1078.11111 C1122.96333,1077.53022 1122.285,1077.0763 1120.92833,1076.73 C1120.974,1076.62815 1120.99967,1076.52222 1121,1076.41222 L1121,1074.03704 L1120.99433,1074.03704 C1120.875,1072.0584 1112.91433,1072 1112,1072 C1111.08567,1072 1103.125,1072.0584 1103.00567,1074.03704 L1103,1074.03704 L1103,1074.08117 L1103,1076.41324 C1103.00167,1077.0583 1103.819,1077.56315 1105.035,1077.93898 C1105.01833,1077.99534 1105.00833,1078.05272 1105.005,1078.11111 L1105,1078.11111 L1105,1078.15525 L1105,1080.48324 C1103.69,1080.82682 1103.03567,1081.27429 1103.00333,1081.84568 L1103,1081.84568 L1103,1081.88981 L1103,1084.22188 C1103.001,1084.67105 1103.39867,1085.05198 1104.04933,1085.36941 C1104.02467,1085.43833 1104.00933,1085.50861 1104.005,1085.58059 L1104,1085.58059 L1104,1085.62472 L1104,1087.95679 C1104.00267,1089.08599 1106.499,1089.78707 1109.27267,1090.11435 C1109.293,1090.11843 1109.31167,1090.12691 1109.33333,1090.12691 C1109.33967,1090.12691 1109.345,1090.12352 1109.35133,1090.12318 C1109.886,1090.18463 1110.42933,1090.2325 1110.967,1090.26679 C1110.97833,1090.26815 1110.98833,1090.27358 1111,1090.27358 C1111.00633,1090.27358 1111.01133,1090.27019 1111.01733,1090.26985 C1111.7,1090.31194 1112.37167,1090.33333 1113,1090.33333 C1113.62833,1090.33333 1114.3,1090.31194 1114.98267,1090.26951 C1114.98867,1090.26985 1114.994,1090.27324 1115,1090.27324 C1115.01167,1090.27324 1115.02167,1090.26747 1115.033,1090.26645 C1115.57067,1090.23216 1116.114,1090.18463 1116.64867,1090.12284 C1116.655,1090.12284 1116.66033,1090.12623 1116.66667,1090.12623 C1116.68833,1090.12623 1116.707,1090.11775 1116.72733,1090.11367 C1119.501,1089.78639 1121.997,1089.08497 1122,1087.95543 L1122,1085.58025 L1121.99467,1085.58025 C1121.97133,1085.16401 1121.623,1084.8167 1120.935,1084.52642 C1120.977,1084.4283 1121,1084.32645 1121,1084.22086 L1121,1082.00185 C1122.19667,1081.62704 1122.99833,1081.12559 1123,1080.4863 L1123,1078.11111 L1122.99633,1078.11111 Z M1120.29733,1084.3312 L1120.18367,1084.43272 C1120.00867,1084.58991 1119.717,1084.74846 1119.33333,1084.90123 L1119.33333,1083.28247 C1119.72967,1083.14191 1120.067,1082.98608 1120.33333,1082.81531 L1120.33333,1084.22019 C1120.33333,1084.25515 1120.32067,1084.2925 1120.29733,1084.3312 Z M1112.842,1085.90889 C1112.79333,1085.91025 1112.74433,1085.91093 1112.69533,1085.91194 C1112.57633,1085.91432 1112.45433,1085.915 1112.33367,1085.91602 L1112.33367,1084.22019 C1112.42533,1084.21917 1112.517,1084.21781 1112.60867,1084.21611 C1112.62633,1084.21577 1112.644,1084.21543 1112.66167,1084.21509 C1112.99733,1084.20864 1113.333,1084.19812 1113.667,1084.1825 L1113.667,1085.87765 C1113.59567,1085.88139 1113.524,1085.88478 1113.45167,1085.88784 C1113.251,1085.89701 1113.04833,1085.9038 1112.842,1085.90889 Z M1111.38633,1085.91364 C1111.23367,1085.91093 1111.08167,1085.90719 1110.93067,1085.90244 C1110.912,1085.90176 1110.89333,1085.90108 1110.87467,1085.9004 C1110.693,1085.89429 1110.51267,1085.88648 1110.33367,1085.87765 L1110.33367,1084.18284 C1110.66767,1084.1988 1111.00333,1084.20932 1111.339,1084.21543 C1111.35667,1084.21577 1111.37433,1084.21611 1111.39167,1084.21645 C1111.48333,1084.21815 1111.575,1084.21951 1111.66667,1084.22052 L1111.66667,1085.91738 C1111.602,1085.9167 1111.53733,1085.9167 1111.473,1085.91568 C1111.44367,1085.915 1111.41533,1085.91398 1111.38633,1085.91364 Z M1105.36567,1085.13957 C1105.35467,1085.13617 1105.34433,1085.13312 1105.33333,1085.13006 L1105.33333,1083.48991 C1105.64467,1083.57546 1105.97933,1083.65355 1106.33333,1083.72451 L1106.33333,1085.38164 C1106.02733,1085.31543 1105.745,1085.24583 1105.488,1085.17454 C1105.44733,1085.16265 1105.40533,1085.15145 1105.36567,1085.13957 Z M1112.39167,1087.95102 C1112.48333,1087.95272 1112.575,1087.95407 1112.66667,1087.95509 L1112.66667,1089.65228 C1112.206,1089.64787 1111.76133,1089.63429 1111.33333,1089.6129 L1111.33333,1087.91775 C1111.66733,1087.9337 1112.003,1087.94423 1112.33867,1087.95034 C1112.35633,1087.95034 1112.374,1087.95068 1112.39167,1087.95102 Z M1113.66133,1087.95 C1113.997,1087.94355 1114.33267,1087.93302 1114.66667,1087.91741 L1114.66667,1089.61256 C1114.23867,1089.63395 1113.794,1089.64753 1113.33333,1089.65194 L1113.33333,1087.95475 C1113.425,1087.95373 1113.51667,1087.95238 1113.60833,1087.95068 C1113.626,1087.95068 1113.64367,1087.95034 1113.66133,1087.95 Z M1116.33333,1087.79654 L1116.33333,1089.48253 C1116.013,1089.51682 1115.67967,1089.54704 1115.33333,1089.57182 L1115.33333,1087.8787 C1115.67133,1087.8563 1116.00533,1087.8288 1116.33333,1087.79654 Z M1117,1087.72321 C1117.34367,1087.68111 1117.67733,1087.63324 1118,1087.57994 L1118,1089.24691 C1117.686,1089.30327 1117.35233,1089.35522 1117,1089.40241 L1117,1087.72321 Z M1118.66667,1087.45873 C1119.02067,1087.38778 1119.35533,1087.30969 1119.66667,1087.22414 L1119.66667,1088.86429 C1119.36967,1088.95154 1119.03533,1089.03608 1118.66667,1089.11586 L1118.66667,1087.45873 Z M1107.33333,1087.45873 L1107.33333,1089.11586 C1106.96467,1089.03608 1106.63033,1088.95154 1106.33333,1088.86429 L1106.33333,1087.22414 C1106.64467,1087.30969 1106.97933,1087.38812 1107.33333,1087.45873 Z M1108,1087.58028 C1108.32267,1087.63358 1108.65633,1087.68145 1109,1087.72355 L1109,1089.40275 C1108.64767,1089.35556 1108.314,1089.30361 1108,1089.24725 L1108,1087.58028 Z M1109.66667,1087.79654 C1109.99467,1087.8288 1110.32867,1087.8563 1110.66667,1087.87904 L1110.66667,1089.57216 C1110.32033,1089.54738 1109.987,1089.51716 1109.66667,1089.48287 L1109.66667,1087.79654 Z M1108.83967,1085.7663 C1108.80567,1085.7629 1108.772,1085.75917 1108.73833,1085.75577 C1108.71433,1085.7534 1108.69067,1085.75034 1108.66667,1085.74796 L1108.66667,1084.06231 C1108.99467,1084.09457 1109.32867,1084.12207 1109.66667,1084.14481 L1109.66667,1085.83657 C1109.38667,1085.8162 1109.11,1085.79312 1108.83967,1085.7663 Z M1108,1083.98864 L1108,1085.66784 C1107.64767,1085.62065 1107.314,1085.5687 1107,1085.51235 L1107,1083.84537 C1107.32267,1083.89867 1107.65633,1083.94688 1108,1083.98864 Z M1114.55533,1085.82062 C1114.482,1085.82639 1114.408,1085.83216 1114.33333,1085.83759 L1114.33333,1084.14448 C1114.67133,1084.12173 1115.00533,1084.09457 1115.33333,1084.06198 L1115.33333,1085.74796 C1115.12733,1085.77003 1114.91667,1085.79074 1114.70033,1085.80873 C1114.652,1085.81315 1114.60367,1085.81688 1114.55533,1085.82062 Z M1116,1085.66784 L1116,1083.98864 C1116.34367,1083.94654 1116.67733,1083.89867 1117,1083.84537 L1117,1085.51235 C1116.686,1085.5687 1116.35233,1085.62099 1116,1085.66784 Z M1117.66667,1083.72417 C1118.02067,1083.65321 1118.35533,1083.57512 1118.66667,1083.48957 L1118.66667,1085.12972 C1118.36967,1085.21698 1118.03533,1085.30151 1117.66667,1085.3813 L1117.66667,1083.72417 Z M1113.10833,1082.1733 C1112.85767,1082.16685 1112.61267,1082.15701 1112.372,1082.14512 C1112.359,1082.14444 1112.346,1082.14377 1112.33333,1082.14343 L1112.33333,1080.44827 C1112.66733,1080.46423 1113.003,1080.47475 1113.33867,1080.48086 C1113.35633,1080.4812 1113.374,1080.48154 1113.39133,1080.48188 C1113.483,1080.48358 1113.57467,1080.48494 1113.66633,1080.48596 L1113.66633,1082.18111 C1113.504,1082.17941 1113.34033,1082.17873 1113.182,1082.175 C1113.15767,1082.17432 1113.13267,1082.17398 1113.10833,1082.1733 Z M1105.33333,1077.32142 L1105.33333,1075.68127 C1105.64467,1075.76682 1105.97933,1075.84491 1106.33333,1075.91586 L1106.33333,1077.57299 C1106.29233,1077.56417 1106.25,1077.55534 1106.21,1077.54651 C1106.03267,1077.50679 1105.85967,1077.46537 1105.69433,1077.42157 C1105.56833,1077.38864 1105.44867,1077.35503 1105.33333,1077.32142 Z M1111.39167,1076.40781 C1111.48333,1076.40951 1111.575,1076.41086 1111.66667,1076.41188 L1111.66667,1078.10704 C1111.218,1078.10262 1110.772,1078.09074 1110.33333,1078.06833 L1110.33333,1076.37454 C1110.66733,1076.39049 1111.003,1076.40102 1111.33867,1076.40713 C1111.35633,1076.40713 1111.374,1076.40747 1111.39167,1076.40781 Z M1112.66133,1076.40679 C1112.997,1076.40034 1113.33267,1076.38981 1113.66667,1076.3742 L1113.66667,1078.06799 C1113.61,1078.07071 1113.55567,1078.07478 1113.49867,1078.0775 C1113.494,1078.07784 1113.48933,1078.07784 1113.48433,1078.07818 C1113.26067,1078.08836 1113.03267,1078.09583 1112.80167,1078.10127 C1112.76567,1078.10228 1112.72967,1078.10262 1112.69367,1078.10364 C1112.575,1078.10602 1112.45367,1078.10636 1112.33333,1078.10772 L1112.33333,1076.41188 C1112.425,1076.41086 1112.51667,1076.40951 1112.60833,1076.40781 C1112.626,1076.40747 1112.64367,1076.40713 1112.66133,1076.40679 Z M1120.257,1076.57722 L1120.24767,1076.57519 L1120.12633,1076.67127 C1119.95033,1076.8108 1119.68,1076.95204 1119.33333,1077.08852 L1119.33333,1075.47349 C1119.72967,1075.33293 1120.067,1075.1771 1120.33333,1075.00633 L1120.33333,1076.4112 C1120.33333,1076.46281 1120.30667,1076.51849 1120.257,1076.57722 Z M1116,1077.85716 L1116,1076.18 C1116.34367,1076.1379 1116.67733,1076.09003 1117,1076.03673 L1117,1077.70099 C1116.684,1077.75802 1116.35133,1077.81031 1116,1077.85716 Z M1117.66667,1077.57028 L1117.66667,1075.91586 C1118.02067,1075.84491 1118.35533,1075.76682 1118.66667,1075.68127 L1118.66667,1077.31769 C1118.368,1077.4063 1118.03167,1077.49083 1117.66667,1077.57028 Z M1115.33333,1076.25333 L1115.33333,1077.93728 C1115.01133,1077.97191 1114.678,1078.00213 1114.33333,1078.02725 L1114.33333,1076.33583 C1114.67133,1076.31309 1115.00533,1076.28559 1115.33333,1076.25333 Z M1108.66667,1077.93796 L1108.66667,1076.25333 C1108.99467,1076.28559 1109.32867,1076.31309 1109.66667,1076.33583 L1109.66667,1078.0259 C1109.32733,1078.00111 1108.99267,1077.97293 1108.66667,1077.93796 Z M1108,1076.18 L1108,1077.8575 C1107.934,1077.84867 1107.86533,1077.84154 1107.8,1077.83238 C1107.75733,1077.82627 1107.71667,1077.81981 1107.67467,1077.8137 C1107.482,1077.78552 1107.29367,1077.75531 1107.109,1077.72373 C1107.072,1077.71728 1107.03633,1077.71049 1107,1077.70404 L1107,1076.03707 C1107.32267,1076.09003 1107.65633,1076.13824 1108,1076.18 Z M1111.584,1082.09657 C1111.539,1082.09318 1111.49367,1082.08978 1111.449,1082.08639 C1111.23567,1082.06941 1111.02733,1082.05074 1110.824,1082.03003 C1110.78033,1082.02562 1110.73667,1082.02086 1110.69333,1082.01645 C1110.68433,1082.01543 1110.67567,1082.01407 1110.66667,1082.0134 L1110.66667,1080.32741 C1110.99467,1080.35966 1111.32867,1080.38716 1111.66667,1080.40991 L1111.66667,1082.10201 C1111.63967,1082.09997 1111.611,1082.09861 1111.584,1082.09657 Z M1109.38167,1081.84296 C1109.24967,1081.82157 1109.12567,1081.79849 1109,1081.77608 L1109,1080.11114 C1109.32267,1080.16444 1109.65633,1080.21231 1110,1080.25441 L1110,1081.93361 C1109.796,1081.90611 1109.59633,1081.87759 1109.40467,1081.84704 C1109.397,1081.84534 1109.38933,1081.84398 1109.38167,1081.84296 Z M1108.33333,1079.9896 L1108.33333,1081.64401 C1107.965,1081.56355 1107.631,1081.47799 1107.33333,1081.38904 L1107.33333,1079.755 C1107.64467,1079.84056 1107.97933,1079.91898 1108.33333,1079.9896 Z M1106.66667,1079.54756 L1106.66667,1081.16056 C1106.14267,1080.95448 1105.80467,1080.74398 1105.69467,1080.55657 L1105.67233,1080.51855 C1105.67033,1080.50802 1105.667,1080.49682 1105.66667,1080.4863 L1105.66667,1079.0804 C1105.933,1079.25117 1106.27033,1079.40701 1106.66667,1079.54756 Z M1114.66133,1080.48086 C1114.997,1080.47441 1115.33267,1080.46389 1115.66667,1080.44827 L1115.66667,1082.14173 C1115.22867,1082.1638 1114.78333,1082.17602 1114.33333,1082.18077 L1114.33333,1080.48596 C1114.425,1080.48494 1114.51667,1080.48358 1114.60833,1080.48188 C1114.626,1080.48154 1114.64367,1080.4812 1114.66133,1080.48086 Z M1118.969,1081.78355 C1118.82267,1081.80935 1118.675,1081.83481 1118.52333,1081.85824 C1118.43633,1081.87182 1118.34733,1081.88472 1118.258,1081.89762 C1118.17367,1081.90985 1118.086,1081.92037 1118.00033,1081.93157 L1118.00033,1080.25407 C1118.344,1080.21198 1118.67767,1080.1641 1119.00033,1080.1108 L1119.00033,1081.77778 C1118.98967,1081.77981 1118.97933,1081.78185 1118.969,1081.78355 Z M1116.712,1082.07349 C1116.58767,1082.08401 1116.45933,1082.0908 1116.33333,1082.09997 L1116.33333,1080.40991 C1116.67133,1080.38716 1117.00533,1080.36 1117.33333,1080.32741 L1117.33333,1082.0117 C1117.13967,1082.03241 1116.94633,1082.05312 1116.74733,1082.07009 C1116.73533,1082.07111 1116.724,1082.07247 1116.712,1082.07349 Z M1120.52133,1081.43691 C1120.35533,1081.4841 1120.17967,1081.52824 1120.00033,1081.57136 C1119.91733,1081.59105 1119.83267,1081.61074 1119.746,1081.62975 C1119.72033,1081.63552 1119.693,1081.64062 1119.667,1081.64639 L1119.667,1079.98994 C1120.021,1079.91898 1120.35567,1079.8409 1120.667,1079.75534 L1120.667,1081.39549 C1120.619,1081.40907 1120.57067,1081.42299 1120.52133,1081.43691 Z M1122.32967,1078.13318 C1122.299,1078.3637 1121.786,1078.67028 1120.87033,1078.95852 C1119.691,1079.3296 1117.84567,1079.66944 1115.507,1079.77469 C1115.38733,1079.77978 1115.268,1079.78488 1115.146,1079.78895 C1115.04633,1079.79235 1114.94633,1079.7954 1114.84467,1079.79812 C1114.56867,1079.80423 1114.28867,1079.80864 1114,1079.80864 C1113.71133,1079.80864 1113.43133,1079.80423 1113.15533,1079.79778 C1113.054,1079.7954 1112.954,1079.79201 1112.854,1079.78861 C1112.73167,1079.78488 1112.61233,1079.77944 1112.493,1079.77435 C1110.15433,1079.6691 1108.30867,1079.32926 1107.12967,1078.95818 C1106.22133,1078.67231 1105.70933,1078.36812 1105.67133,1078.13861 C1105.673,1078.13216 1105.673,1078.12673 1105.677,1078.11858 C1105.69967,1078.12435 1105.725,1078.1291 1105.748,1078.13488 C1105.87833,1078.16645 1106.012,1078.19701 1106.148,1078.2262 C1106.81033,1078.37151 1107.54433,1078.49068 1108.32633,1078.58167 C1108.329,1078.58167 1108.331,1078.58302 1108.33333,1078.58302 C1108.334,1078.58302 1108.33467,1078.58269 1108.335,1078.58269 C1108.86767,1078.64448 1109.42033,1078.69302 1109.98767,1078.72731 C1109.992,1078.72731 1109.99567,1078.72969 1110,1078.72969 C1110.00233,1078.72969 1110.004,1078.72833 1110.00633,1078.72833 C1110.41467,1078.75278 1110.82833,1078.77077 1111.247,1078.78028 C1111.50333,1078.78673 1111.755,1078.79012 1112,1078.79012 C1112.175,1078.79012 1112.35433,1078.78809 1112.53533,1078.78469 C1114.95733,1078.74667 1117.202,1078.45333 1118.764,1077.99873 C1118.836,1077.97802 1118.90633,1077.95664 1118.97567,1077.93525 C1119.018,1077.92201 1119.06133,1077.9091 1119.10233,1077.89586 C1119.223,1077.85648 1119.33867,1077.81608 1119.45033,1077.77398 C1119.46967,1077.76651 1119.488,1077.75904 1119.50733,1077.75157 C1119.60167,1077.71525 1119.69233,1077.67756 1119.779,1077.6392 C1119.804,1077.62799 1119.82967,1077.61713 1119.854,1077.60593 C1119.94633,1077.56349 1120.03567,1077.52003 1120.11833,1077.47488 C1120.15567,1077.45485 1120.188,1077.43414 1120.223,1077.41377 C1120.263,1077.39034 1120.303,1077.36657 1120.34,1077.34247 C1120.361,1077.32889 1120.386,1077.31599 1120.406,1077.30241 C1121.89833,1077.63207 1122.29167,1077.99262 1122.32967,1078.13318 Z M1112,1072.67901 C1117.49633,1072.67901 1120.27633,1073.56037 1120.32833,1074.06623 C1120.288,1074.29574 1119.77633,1074.59892 1118.87033,1074.8841 C1117.691,1075.25519 1115.84567,1075.59503 1113.507,1075.70028 C1113.38733,1075.70537 1113.268,1075.71046 1113.146,1075.71454 C1113.04633,1075.71793 1112.94633,1075.72099 1112.84467,1075.7237 C1112.56867,1075.73015 1112.28867,1075.73457 1112,1075.73457 C1111.71133,1075.73457 1111.43133,1075.73015 1111.15533,1075.7237 C1111.054,1075.72133 1110.954,1075.71793 1110.854,1075.71454 C1110.73167,1075.7108 1110.61233,1075.70537 1110.493,1075.70028 C1108.15433,1075.59503 1106.30867,1075.25519 1105.12967,1074.8841 C1104.22333,1074.59892 1103.712,1074.29574 1103.67167,1074.06623 C1103.72367,1073.56037 1106.50367,1072.67901 1112,1072.67901 Z M1103.66667,1076.41222 L1103.66667,1075.00633 C1103.933,1075.1771 1104.27033,1075.33293 1104.66667,1075.47349 L1104.66667,1077.09904 C1104.01833,1076.85154 1103.66733,1076.60336 1103.66667,1076.41222 Z M1105.28133,1081.11065 C1105.28633,1081.11608 1105.294,1081.12083 1105.299,1081.12627 C1105.75533,1081.59546 1106.70033,1081.96417 1107.87667,1082.23917 C1107.90367,1082.24562 1107.93233,1082.25173 1107.95967,1082.25818 C1108.046,1082.27787 1108.13367,1082.29722 1108.22233,1082.3159 C1109.30267,1082.55015 1110.59233,1082.71957 1111.99733,1082.80343 C1111.99833,1082.80343 1111.999,1082.80377 1111.99967,1082.80377 C1112.00033,1082.80377 1112.00067,1082.80343 1112.001,1082.80343 C1112.45233,1082.83025 1112.914,1082.84892 1113.38533,1082.85707 C1113.594,1082.86148 1113.79933,1082.8642 1114,1082.8642 C1114.23,1082.8642 1114.466,1082.86148 1114.706,1082.85571 C1115.142,1082.84654 1115.57167,1082.82821 1115.99533,1082.80309 C1115.997,1082.80309 1115.99833,1082.8041 1116,1082.8041 C1116.003,1082.8041 1116.00533,1082.80241 1116.00833,1082.80241 C1117.417,1082.71787 1118.73867,1082.54676 1119.85633,1082.30062 C1119.61433,1082.42963 1119.283,1082.56306 1118.87033,1082.69309 C1117.62533,1083.08488 1115.637,1083.4417 1113.11,1083.52454 C1113.035,1083.52691 1112.961,1083.52963 1112.885,1083.53167 C1112.80333,1083.5337 1112.72033,1083.53506 1112.63733,1083.53676 C1112.42767,1083.54015 1112.21667,1083.54321 1112,1083.54321 C1111.71133,1083.54321 1111.43133,1083.5388 1111.15533,1083.53235 C1111.054,1083.52997 1110.954,1083.52657 1110.854,1083.52318 C1110.73167,1083.51944 1110.61233,1083.51401 1110.493,1083.50892 C1108.15433,1083.40367 1106.30867,1083.06383 1105.12967,1082.69275 C1104.213,1082.40417 1103.7,1082.09725 1103.67033,1081.86673 C1103.70733,1081.73907 1104.04433,1081.4196 1105.28133,1081.11065 Z M1103.66667,1084.22086 L1103.66667,1082.81497 C1103.933,1082.98574 1104.27033,1083.14157 1104.66667,1083.28213 L1104.66667,1084.90123 L1104.47633,1084.82586 L1104.47233,1084.82994 C1103.949,1084.60892 1103.66733,1084.39198 1103.66667,1084.22086 Z M1104.66667,1087.95543 L1104.66667,1086.54954 C1104.933,1086.72031 1105.27033,1086.87614 1105.66667,1087.0167 L1105.66667,1088.64225 C1105.01833,1088.39475 1104.66733,1088.14657 1104.66667,1087.95543 Z M1120.33333,1088.64225 L1120.33333,1087.01704 C1120.72967,1086.87648 1121.067,1086.72065 1121.33333,1086.54988 L1121.33333,1087.95475 C1121.333,1088.1459 1120.98167,1088.39441 1120.33333,1088.64225 Z M1121.329,1085.60639 C1121.29267,1085.83623 1120.78067,1086.14111 1119.87033,1086.42765 C1118.691,1086.79873 1116.84567,1087.13858 1114.507,1087.24383 C1114.38733,1087.24892 1114.268,1087.25401 1114.146,1087.25809 C1114.04633,1087.26148 1113.94633,1087.26454 1113.84467,1087.26725 C1113.56867,1087.27336 1113.28867,1087.27778 1113,1087.27778 C1112.71133,1087.27778 1112.431,1087.27336 1112.15467,1087.26691 C1112.05433,1087.26454 1111.95533,1087.26114 1111.85633,1087.25775 C1111.73333,1087.25367 1111.61333,1087.24858 1111.493,1087.24349 C1109.15433,1087.13824 1107.309,1086.7984 1106.12967,1086.42731 C1105.248,1086.14994 1104.73867,1085.85525 1104.67467,1085.62778 C1104.774,1085.66309 1104.877,1085.69738 1104.98267,1085.73099 C1104.99333,1085.73438 1105.004,1085.73778 1105.01467,1085.74083 C1105.10467,1085.76901 1105.19667,1085.79617 1105.291,1085.82265 C1105.32667,1085.83284 1105.36267,1085.84302 1105.399,1085.85287 C1105.45233,1085.86747 1105.507,1085.88139 1105.56167,1085.89565 C1106.77567,1086.21241 1108.32533,1086.43682 1109.99833,1086.53765 C1109.999,1086.53765 1109.99933,1086.53799 1110,1086.53799 C1110.00033,1086.53799 1110.00067,1086.53765 1110.001,1086.53765 C1110.51767,1086.56889 1111.04533,1086.58824 1111.57867,1086.59469 C1111.72067,1086.59741 1111.86167,1086.59877 1112,1086.59877 C1112.18367,1086.59877 1112.37167,1086.59639 1112.562,1086.59299 C1113.04833,1086.58485 1113.52833,1086.56651 1113.99767,1086.53799 C1113.99867,1086.53799 1113.99933,1086.53867 1114.00033,1086.53867 C1114.002,1086.53867 1114.003,1086.53765 1114.00467,1086.53765 C1114.57633,1086.50269 1115.12967,1086.45278 1115.66133,1086.39065 C1115.66333,1086.39065 1115.665,1086.39167 1115.667,1086.39167 C1115.67433,1086.39167 1115.68033,1086.38793 1115.68767,1086.38725 C1116.27967,1086.31765 1116.841,1086.2321 1117.362,1086.13262 C1117.46933,1086.11259 1117.575,1086.09188 1117.67967,1086.07049 C1117.703,1086.06574 1117.72633,1086.06099 1117.74967,1086.0559 C1118.734,1085.85015 1119.586,1085.58364 1120.17067,1085.2533 C1120.20267,1085.23565 1120.23267,1085.21731 1120.263,1085.19932 C1120.3,1085.17691 1120.33533,1085.15417 1120.36967,1085.13108 C1120.40167,1085.11003 1120.43867,1085.08966 1120.468,1085.06827 C1121.126,1085.30728 1121.30733,1085.52117 1121.329,1085.60639 Z M1121.33333,1081.17312 L1121.33333,1079.5479 C1121.72967,1079.40735 1122.067,1079.25151 1122.33333,1079.08074 L1122.33333,1080.48562 C1122.333,1080.67676 1121.98167,1080.92528 1121.33333,1081.17312 Z" transform="translate(-1103 -1072)"/>
</svg>
