<svg xmlns="http://www.w3.org/2000/svg" width="20" height="15" viewBox="0 0 20 15">
  <path fill="#323334" fill-rule="evenodd" d="M1247.36282,1095.89247 C1247.54199,1096.07527 1247.76596,1096.16667 1248.01232,1096.16667 C1248.25868,1096.16667 1248.48264,1096.07527 1248.66181,1095.89247 L1254.70885,1089.72312 C1254.75364,1089.67742 1254.79843,1089.63172 1254.82083,1089.58602 C1254.82083,1089.58602 1254.84323,1089.56317 1254.84323,1089.54032 C1254.86562,1089.49462 1254.88802,1089.44892 1254.91041,1089.42608 C1254.91041,1089.40323 1254.91041,1089.38038 1254.93281,1089.38038 C1254.95521,1089.33468 1254.95521,1089.31183 1254.9776,1089.26613 C1255,1089.19758 1255,1089.15188 1255,1089.08333 C1255,1089.01478 1255,1088.96909 1254.9776,1088.90054 C1254.9776,1088.85484 1254.95521,1088.80914 1254.93281,1088.78629 C1254.93281,1088.76344 1254.93281,1088.74059 1254.91041,1088.74059 C1254.88802,1088.69489 1254.86562,1088.64919 1254.84323,1088.60349 C1254.84323,1088.60349 1254.84323,1088.58065 1254.82083,1088.58065 C1254.79843,1088.53495 1254.75364,1088.48925 1254.70885,1088.44355 L1248.66181,1082.27419 C1248.30347,1081.9086 1247.72116,1081.9086 1247.36282,1082.27419 C1247.00448,1082.63978 1247.00448,1083.23387 1247.36282,1083.59946 L1251.84211,1088.16935 L1235.91825,1088.16935 C1235.40314,1088.16935 1235,1088.58065 1235,1089.10618 C1235,1089.63172 1235.40314,1090.04301 1235.91825,1090.04301 L1251.84211,1090.04301 L1247.36282,1094.6129 C1247.00448,1094.9328 1247.00448,1095.52688 1247.36282,1095.89247 Z" transform="translate(-1235 -1082)"/>
</svg>
