<svg xmlns="http://www.w3.org/2000/svg" width="20" height="24" viewBox="0 0 20 24">
  <path fill="#323334" d="M1128.29484,1199.16353 L1125.7918,1199.16353 L1125.7918,1198.75432 C1126.60702,1198.15054 1127.13665,1197.18205 1127.13665,1196.09201 C1127.13665,1194.47713 1125.97464,1193.12847 1124.44289,1192.83829 C1123.99765,1191.19438 1122.49764,1190.00005 1120.72547,1190 C1119.74466,1190.00005 1118.80336,1190.3793 1118.09568,1191.03922 C1117.84298,1190.97313 1117.5817,1190.93912 1117.31905,1190.93912 C1116.07038,1190.93912 1114.98112,1191.69671 1114.50656,1192.78612 C1114.44183,1192.7823 1114.37676,1192.78042 1114.31155,1192.78042 C1112.48557,1192.78042 1111,1194.26598 1111,1196.09197 C1111,1197.09737 1111.45094,1197.99886 1112.16051,1198.6067 L1112.16051,1212.30281 C1112.16051,1213.09987 1112.81265,1213.752 1113.6097,1213.752 L1124.34261,1213.752 C1125.13966,1213.752 1125.7918,1213.09987 1125.7918,1212.30281 L1125.7918,1210.17733 L1128.29484,1210.17733 C1129.78645,1210.17733 1131,1208.96378 1131,1207.47218 L1131,1201.86864 C1131,1200.37703 1129.78645,1199.16353 1128.29484,1199.16353 Z M1123.8251,1197.56792 L1115.34559,1197.56792 L1115.34559,1200.51707 C1115.34559,1201.02395 1114.93465,1201.43489 1114.42777,1201.43489 C1113.92089,1201.43489 1113.50995,1201.02395 1113.50995,1200.51707 L1113.50995,1197.33025 C1113.10452,1197.06689 1112.83564,1196.61039 1112.83564,1196.09197 C1112.83564,1195.27815 1113.49773,1194.61606 1114.31155,1194.61606 C1114.49472,1194.61606 1114.67399,1194.64959 1114.84446,1194.71567 C1115.11672,1194.82122 1115.42298,1194.79098 1115.66929,1194.63408 C1115.91561,1194.47718 1116.07256,1194.21246 1116.09202,1193.92113 C1116.13497,1193.27831 1116.67392,1192.77477 1117.31905,1192.77477 C1117.52948,1192.77477 1117.72893,1192.82597 1117.91177,1192.92688 C1118.31634,1193.15016 1118.8238,1193.03784 1119.09639,1192.66472 C1119.4813,1192.13785 1120.07508,1191.83564 1120.72547,1191.83564 C1121.8016,1191.83564 1122.68604,1192.67656 1122.73898,1193.75007 C1122.75111,1193.99643 1122.86192,1194.22758 1123.04645,1194.39129 C1123.23093,1194.55505 1123.47358,1194.63785 1123.71965,1194.62046 C1123.76235,1194.61746 1123.79588,1194.61611 1123.8251,1194.61611 C1124.63892,1194.61611 1125.30101,1195.2782 1125.30101,1196.09201 C1125.30101,1196.90583 1124.63892,1197.56792 1123.8251,1197.56792 Z M1128.48807,1207.47222 C1128.48807,1207.57516 1128.39778,1207.66545 1128.29484,1207.66545 L1125.7918,1207.66545 L1125.7918,1201.67546 L1128.29484,1201.67546 C1128.39778,1201.67546 1128.48807,1201.76574 1128.48807,1201.86868 L1128.48807,1207.47222 Z" transform="translate(-1111 -1190)"/>
</svg>
