<svg xmlns="http://www.w3.org/2000/svg" width="20" height="23" viewBox="0 0 20 23">
  <path fill="#323334" d="M669.571429,937.571429 L668.142857,937.571429 L668.142857,936.142857 L668.857143,936.142857 C669.251429,936.142857 669.571429,935.822857 669.571429,935.428571 L669.571429,921.142857 C669.571429,920.747857 669.251429,920.428571 668.857143,920.428571 L658.857143,920.428571 C658.462143,920.428571 658.142857,920.747857 658.142857,921.142857 L658.142857,921.857143 L656.714286,921.857143 L656.714286,920.428571 C656.714286,919.64 657.353571,919 658.142857,919 L669.571429,919 C670.36,919 671,919.64 671,920.428571 L671,936.142857 C671,936.932143 670.36,937.571429 669.571429,937.571429 Z M666.714286,924.714286 L666.714286,940.428571 C666.714286,941.217857 666.074286,941.857857 665.285714,941.857857 L652.428571,941.857857 C651.64,941.857857 651,941.217857 651,940.428571 L651,924.714286 C651,923.925 651.64,923.285 652.428571,923.285 L665.285714,923.285 C666.074286,923.285 666.714286,923.925 666.714286,924.714286 Z M664.571429,924.714286 L653.142857,924.714286 C652.748571,924.714286 652.428571,925.034286 652.428571,925.428571 L652.428571,939.714286 C652.428571,940.109286 652.748571,940.428571 653.142857,940.428571 L664.571429,940.428571 C664.965714,940.428571 665.285714,940.109286 665.285714,939.714286 L665.285714,925.428571 C665.285714,925.034286 664.965714,924.714286 664.571429,924.714286 Z" transform="translate(-651 -919)"/>
</svg>
