<svg xmlns="http://www.w3.org/2000/svg" width="20" height="20" viewBox="0 0 20 20">
  <path fill="#323334" d="M968.84974,1199.5314 L972.85773,1203.53939 L975,1203.53939 L975,1211.28977 C975,1211.89645 974.508195,1212.38825 973.901513,1212.38825 L956.457939,1212.38825 C955.851257,1212.38825 955.359452,1211.89645 955.359452,1211.28977 L955.359452,1200.40613 C955.359452,1200.28994 955.382586,1200.17928 955.423712,1200.07785 L958.88526,1203.53939 L962.613669,1203.53939 L958.605679,1199.5314 L961.962367,1199.5314 L965.970357,1203.53939 L969.698766,1203.53939 L965.690776,1199.5314 L968.84974,1199.5314 Z M972.578149,1199.5314 L975,1199.5314 L975,1201.95326 L972.578149,1199.5314 Z M971.695774,1193 L968.303891,1197.54125 L964.981739,1198.02251 L968.373688,1193.48133 L971.695774,1193 Z M964.683835,1194.0159 L961.291952,1198.55709 L958.165546,1199.01007 L961.557495,1194.46882 L964.683835,1194.0159 Z M974.770575,1195.72048 C974.839844,1196.19864 974.508393,1196.64233 974.030297,1196.7116 L971.993612,1197.00667 L974.475505,1193.68379 L974.770575,1195.72048 Z M957.867642,1195.0034 L956.192462,1197.24625 L955.316019,1198.41967 L955.278451,1198.16026 L955.009152,1196.30139 C954.939883,1195.8233 955.271333,1195.37954 955.749363,1195.31027 L957.867642,1195.0034 Z" transform="translate(-955 -1193)"/>
</svg>
