<svg xmlns="http://www.w3.org/2000/svg" width="20" height="24" viewBox="0 0 20 24">
  <path fill="#323334" d="M1287.46659,1209.8956 L1287.46659,1208.26665 C1287.46659,1207.67777 1286.98877,1207.19994 1286.40038,1207.19994 L1283.62919,1207.19994 C1284.18945,1206.46988 1284.41997,1205.76351 1284.31483,1205.06257 C1284.18353,1204.19281 1283.56946,1203.5052 1283.02698,1202.89706 C1282.2515,1202.02779 1281.83044,1201.5011 1282.20609,1200.77943 C1282.32653,1200.54693 1282.26038,1200.26014 1282.04961,1200.10465 C1281.83982,1199.94866 1281.54612,1199.9689 1281.35953,1200.15302 C1278.86675,1202.60039 1280.18866,1204.20317 1281.15418,1205.37404 C1281.77121,1206.12286 1282.1429,1206.61944 1282.02049,1207.19994 L1278.83022,1207.19994 C1279.39097,1206.46988 1279.621,1205.76351 1279.51586,1205.06257 C1279.38505,1204.19281 1278.77049,1203.5052 1278.228,1202.89706 C1277.45203,1202.02779 1277.03097,1201.5011 1277.40662,1200.77943 C1277.52756,1200.54693 1277.46141,1200.26014 1277.25064,1200.10465 C1277.04035,1199.94866 1276.74665,1199.9689 1276.56006,1200.15302 C1274.06728,1202.60039 1275.38969,1204.20317 1276.35521,1205.37404 C1276.97223,1206.12286 1277.34344,1206.61944 1277.22102,1207.19994 L1273.06671,1207.19994 C1272.47782,1207.19994 1272,1207.67777 1272,1208.26665 L1272,1219.4664 C1272,1221.52479 1273.67535,1223.19915 1275.73325,1223.19915 L1283.73335,1223.19915 C1285.61848,1223.19915 1287.17832,1221.79233 1287.4276,1219.97433 C1289.98899,1219.72456 1292,1217.55954 1292,1214.9325 C1292.00049,1212.31977 1290.01071,1210.16314 1287.46659,1209.8956 Z M1276.80045,1218.93329 C1276.80045,1219.52168 1276.32263,1220 1275.73374,1220 C1275.14485,1220 1274.66703,1219.52168 1274.66703,1218.93329 L1274.66703,1210.93319 C1274.66703,1210.3443 1275.14485,1209.86648 1275.73374,1209.86648 C1276.32263,1209.86648 1276.80045,1210.3443 1276.80045,1210.93319 L1276.80045,1218.93329 Z M1287.46659,1217.81573 L1287.46659,1212.05124 C1288.82997,1212.30348 1289.86657,1213.49903 1289.86657,1214.93349 C1289.86707,1216.36844 1288.82997,1217.56349 1287.46659,1217.81573 Z" transform="translate(-1272 -1200)"/>
</svg>
