<svg xmlns="http://www.w3.org/2000/svg" width="20" height="15" viewBox="0 0 20 15">
  <path fill="#323334" d="M1254.33759,937.906599 L1236.72414,935 L1236.72414,936.540085 L1235.68966,936.454722 L1235.68966,937.906955 L1235,937.906955 L1235,950 L1255,950 L1255,937.906955 L1254.33759,937.906955 L1254.33759,937.906599 Z M1237.41379,935.834064 L1246.65586,937.359211 L1237.41379,936.596638 L1237.41379,935.834064 Z M1236.37931,937.224765 L1236.72414,937.253219 L1236.72414,937.253575 L1239.05414,937.445641 L1244.64138,937.906599 L1236.37931,937.906599 L1236.37931,937.224765 Z M1254.31034,949.288289 L1235.68966,949.288289 L1235.68966,938.617955 L1253.27586,938.617955 L1254.31034,938.617955 L1254.31034,949.288289 Z M1237.24138,941.463377 C1237.9069,941.463377 1238.44828,940.904963 1238.44828,940.218505 C1238.44828,939.532047 1237.9069,938.973632 1237.24138,938.973632 C1236.57586,938.973632 1236.03448,939.532047 1236.03448,940.218505 C1236.03448,940.904963 1236.57586,941.463377 1237.24138,941.463377 Z M1237.24138,939.684988 C1237.52655,939.684988 1237.75862,939.924359 1237.75862,940.218505 C1237.75862,940.51265 1237.52655,940.752021 1237.24138,940.752021 C1236.95621,940.752021 1236.72414,940.513006 1236.72414,940.218505 C1236.72414,939.924004 1236.95621,939.684988 1237.24138,939.684988 Z M1251.55172,940.218505 C1251.55172,940.904963 1252.0931,941.463377 1252.75862,941.463377 C1253.42414,941.463377 1253.96552,940.904963 1253.96552,940.218505 C1253.96552,939.532047 1253.42414,938.973632 1252.75862,938.973632 C1252.0931,938.973632 1251.55172,939.532402 1251.55172,940.218505 Z M1253.27586,940.218505 C1253.27586,940.51265 1253.04379,940.752021 1252.75862,940.752021 C1252.47345,940.752021 1252.24138,940.51265 1252.24138,940.218505 C1252.24138,939.924359 1252.47345,939.684988 1252.75862,939.684988 C1253.04379,939.684988 1253.27586,939.924359 1253.27586,940.218505 Z M1237.24138,946.442866 C1236.57586,946.442866 1236.03448,947.00128 1236.03448,947.687739 C1236.03448,948.374197 1236.57586,948.932611 1237.24138,948.932611 C1237.9069,948.932611 1238.44828,948.374197 1238.44828,947.687739 C1238.44828,947.00128 1237.9069,946.442866 1237.24138,946.442866 Z M1237.24138,948.221255 C1236.95621,948.221255 1236.72414,947.981884 1236.72414,947.687739 C1236.72414,947.393593 1236.95621,947.154222 1237.24138,947.154222 C1237.52655,947.154222 1237.75862,947.393593 1237.75862,947.687739 C1237.75862,947.981884 1237.52655,948.221255 1237.24138,948.221255 Z M1252.75862,946.442866 C1252.0931,946.442866 1251.55172,947.00128 1251.55172,947.687739 C1251.55172,948.374197 1252.0931,948.932611 1252.75862,948.932611 C1253.42414,948.932611 1253.96552,948.374197 1253.96552,947.687739 C1253.96552,947.00128 1253.42414,946.442866 1252.75862,946.442866 Z M1252.75862,948.221255 C1252.47345,948.221255 1252.24138,947.981884 1252.24138,947.687739 C1252.24138,947.393593 1252.47345,947.154222 1252.75862,947.154222 C1253.04379,947.154222 1253.27586,947.393593 1253.27586,947.687739 C1253.27586,947.981884 1253.04379,948.221255 1252.75862,948.221255 Z M1245.87862,948.846181 C1245.92103,948.838001 1245.96379,948.831598 1246.00586,948.822351 C1246.13276,948.794252 1246.25862,948.760819 1246.38276,948.72205 C1246.44,948.704266 1246.49586,948.683636 1246.55207,948.663718 C1246.62517,948.637754 1246.69793,948.610723 1246.77,948.581201 C1246.83207,948.555948 1246.89379,948.529984 1246.95448,948.502241 C1247.02276,948.470585 1247.09,948.436085 1247.15724,948.401228 C1247.25103,948.3525 1247.34276,948.301283 1247.4331,948.246508 C1247.4469,948.238328 1247.46069,948.229792 1247.47448,948.221255 L1251.24724,948.221255 L1251.21379,947.834278 C1251.21034,947.785906 1251.2069,947.737533 1251.2069,947.687739 C1251.2069,946.805302 1251.9031,946.087188 1252.75862,946.087188 C1252.80621,946.087188 1252.85276,946.09039 1252.89931,946.094658 L1253.27586,946.130225 L1253.27586,941.776018 L1252.89931,941.811586 C1252.85276,941.815854 1252.80586,941.819055 1252.75862,941.819055 C1251.9031,941.819055 1251.2069,941.100941 1251.2069,940.218505 C1251.2069,940.169066 1251.21034,940.120338 1251.21414,940.071965 L1251.24759,939.684988 L1247.47379,939.684988 C1246.74931,939.236478 1245.90483,938.973632 1245,938.973632 C1244.09517,938.973632 1243.25069,939.236478 1242.52621,939.684988 L1238.75138,939.684988 L1238.78586,940.073033 C1238.79,940.121405 1238.7931,940.169421 1238.7931,940.218505 C1238.7931,941.100941 1238.0969,941.819055 1237.24138,941.819055 C1237.19379,941.819055 1237.1469,941.815854 1237.10034,941.811586 L1236.72414,941.776018 L1236.72414,946.130225 L1237.10034,946.094658 C1237.1469,946.09039 1237.19379,946.087188 1237.24138,946.087188 C1238.0969,946.087188 1238.7931,946.805302 1238.7931,947.687739 C1238.7931,947.736822 1238.79,947.785194 1238.78586,947.833211 L1238.75138,948.221255 L1242.51793,948.221255 C1242.57276,948.2554 1242.62793,948.288478 1242.68379,948.320134 C1242.70103,948.330093 1242.71897,948.338985 1242.73655,948.348588 C1242.84862,948.41012 1242.96241,948.466673 1243.07828,948.518602 C1243.10483,948.530339 1243.13103,948.542432 1243.15759,948.553814 C1243.28897,948.610011 1243.42207,948.661229 1243.55793,948.705333 C1243.56138,948.7064 1243.56483,948.707823 1243.56828,948.70889 C1243.70862,948.753705 1243.85138,948.791051 1243.99552,948.822351 C1244.02931,948.82982 1244.06379,948.835511 1244.09793,948.841913 C1244.20931,948.863609 1244.32138,948.881393 1244.43448,948.894909 C1244.47552,948.899889 1244.51621,948.905224 1244.55759,948.909136 C1244.70414,948.923008 1244.85138,948.932255 1245,948.932255 C1245.14552,948.932255 1245.29,948.923008 1245.43414,948.909492 C1245.47897,948.905224 1245.52345,948.899889 1245.56793,948.894553 C1245.67207,948.88246 1245.77552,948.865743 1245.87862,948.846181 Z M1244.04517,948.102103 C1244.02345,948.096768 1244.00172,948.090366 1243.98,948.084675 C1243.86759,948.055865 1243.7569,948.021009 1243.64724,947.98224 C1243.59655,947.9641 1243.54621,947.945249 1243.49621,947.925331 C1243.41724,947.894032 1243.34034,947.858464 1243.26345,947.822185 C1243.22586,947.804045 1243.18862,947.78555 1243.15138,947.766343 L1244.06586,947.301828 C1244.26379,947.201171 1244.3869,946.997012 1244.3869,946.769379 L1244.3869,946.180732 L1244.17862,946.088256 C1243.73655,945.891921 1243.44897,945.515614 1243.29931,944.937638 L1243.25,944.748062 L1243.06828,944.68973 C1242.95931,944.654874 1242.88621,944.554573 1242.88621,944.4404 L1242.88621,944.130605 C1242.88621,944.016788 1242.95793,943.93676 1243.02483,943.900126 L1243.1869,943.811206 L1243.20586,943.623053 C1243.23448,943.337088 1243.29655,943.07353 1243.38931,942.83985 C1243.42897,942.739905 1243.46276,942.665212 1243.49,942.604747 C1243.58172,942.401299 1243.62276,942.280725 1243.61345,942.085458 C1243.95931,942.268987 1244.36655,942.346881 1244.80448,942.310957 C1244.84966,942.307045 1244.89621,942.305266 1244.9431,942.305266 C1246.03966,942.305266 1246.57483,942.712873 1246.67897,943.626609 L1246.7,943.812273 L1246.86034,943.89977 C1246.92793,943.93676 1247,944.016788 1247,944.130961 L1247,944.440756 C1247,944.554929 1246.9269,944.65523 1246.81793,944.690086 L1246.63621,944.748417 L1246.5869,944.937994 C1246.43724,945.51597 1246.14966,945.892633 1245.70759,946.088611 L1245.49931,946.181087 L1245.49931,946.772224 C1245.49931,946.995945 1245.61931,947.198326 1245.8131,947.301117 L1246.77069,947.805824 C1246.75793,947.812226 1246.74552,947.818628 1246.73241,947.824675 C1246.6131,947.881583 1246.49172,947.932801 1246.36793,947.97726 C1246.3531,947.982595 1246.33862,947.988642 1246.32379,947.993977 C1245.59138,948.246508 1244.79345,948.280653 1244.04517,948.102103 Z M1248.37483,940.396344 L1250.52379,940.396344 C1250.60793,941.529889 1251.48724,942.436867 1252.58621,942.523653 L1252.58621,945.382591 C1251.48724,945.469376 1250.60793,946.376355 1250.52379,947.5099 L1248.37483,947.5099 C1248.38,947.504565 1248.38448,947.498874 1248.38966,947.493539 C1248.44862,947.433429 1248.5031,947.369051 1248.55897,947.305741 C1248.61276,947.245275 1248.66862,947.186944 1248.71897,947.123989 C1248.73828,947.099803 1248.75517,947.073483 1248.77414,947.048941 C1249.33966,946.319802 1249.69793,945.440211 1249.79724,944.49553 C1249.79862,944.483793 1249.80103,944.472411 1249.80241,944.460674 C1249.81897,944.293505 1249.82759,944.124203 1249.82759,943.953122 C1249.82759,943.782041 1249.81897,943.612738 1249.80276,943.445214 C1249.80172,943.433476 1249.79897,943.422095 1249.79759,943.410357 C1249.69828,942.466033 1249.33966,941.586086 1248.77448,940.856946 C1248.75552,940.832405 1248.73862,940.806084 1248.71931,940.781898 C1248.66862,940.719299 1248.6131,940.660612 1248.55931,940.600147 C1248.50345,940.537192 1248.44897,940.472459 1248.39,940.412349 C1248.38448,940.407725 1248.38,940.401679 1248.37483,940.396344 Z M1247.21103,940.351884 C1247.49586,940.538259 1247.75207,940.756645 1247.97966,940.999218 C1248.01069,941.032296 1248.03966,941.067152 1248.06966,941.101297 C1248.14379,941.185593 1248.21379,941.273089 1248.28103,941.36272 C1248.31586,941.40967 1248.35103,941.456619 1248.38414,941.504991 C1248.4469,941.596756 1248.50448,941.692078 1248.56,941.788467 C1248.58448,941.830792 1248.61138,941.871339 1248.63448,941.914732 C1248.70517,942.048467 1248.76828,942.186826 1248.82448,942.32803 C1248.84586,942.381381 1248.8631,942.436512 1248.88241,942.490575 C1248.91759,942.590164 1248.95034,942.690465 1248.97862,942.792901 C1248.99483,942.851588 1249.00931,942.91063 1249.02276,942.970028 C1249.04759,943.078154 1249.06759,943.187703 1249.08414,943.297963 C1249.09207,943.350248 1249.10138,943.402177 1249.10759,943.455173 C1249.12586,943.619496 1249.13793,943.785242 1249.13793,943.953122 C1249.13793,944.121002 1249.12586,944.286747 1249.10724,944.450715 C1249.10138,944.503711 1249.09172,944.555284 1249.08379,944.607925 C1249.06724,944.71854 1249.04724,944.828089 1249.02241,944.935859 C1249.00862,944.995258 1248.99414,945.054656 1248.97828,945.112987 C1248.95034,945.215422 1248.91759,945.315723 1248.88207,945.415313 C1248.86276,945.469732 1248.84552,945.524862 1248.82414,945.577858 C1248.76759,945.719062 1248.70483,945.857421 1248.63414,945.991155 C1248.61103,946.034548 1248.58414,946.075095 1248.55966,946.117421 C1248.50414,946.21381 1248.44655,946.309131 1248.38379,946.400896 C1248.35069,946.449268 1248.31552,946.496218 1248.28069,946.543167 C1248.21379,946.632798 1248.14345,946.720295 1248.06931,946.804591 C1248.03931,946.838736 1248.01034,946.873592 1247.97931,946.90667 C1247.81621,947.080597 1247.63379,947.237451 1247.44069,947.383278 C1247.38207,947.339174 1247.32241,947.296137 1247.25724,947.262348 L1246.18828,946.69931 L1246.18828,946.634577 C1246.67069,946.355014 1247.01172,945.903303 1247.20517,945.287625 C1247.50103,945.117966 1247.68931,944.797856 1247.68931,944.439689 L1247.68931,944.129894 C1247.68931,943.834681 1247.55897,943.560453 1247.34,943.377279 C1247.19586,942.526854 1246.64862,941.592488 1244.94276,941.592488 C1244.87621,941.592488 1244.81103,941.594978 1244.74828,941.600313 C1244.49586,941.620942 1244.1269,941.599246 1243.80897,941.37837 C1243.69,941.295853 1243.60069,941.216181 1243.54414,941.141844 C1243.43034,940.992815 1243.24069,940.941242 1243.07069,941.013445 C1242.90172,941.085292 1242.80241,941.259929 1242.82345,941.447016 C1242.83655,941.564034 1242.85552,941.700258 1242.88414,941.849287 C1242.93966,942.136675 1242.93966,942.136675 1242.86414,942.303488 C1242.83345,942.371778 1242.79517,942.456429 1242.75034,942.569179 C1242.65138,942.818509 1242.58034,943.091314 1242.53931,943.381903 C1242.32379,943.565077 1242.19586,943.837526 1242.19586,944.129894 L1242.19586,944.439689 C1242.19586,944.797856 1242.38414,945.118322 1242.68,945.287625 C1242.87345,945.903303 1243.21448,946.355014 1243.6969,946.634577 L1243.6969,946.695398 L1242.58862,947.258791 C1242.55345,947.278709 1242.52034,947.305741 1242.48655,947.329927 C1242.32034,947.198682 1242.16241,947.0589 1242.01931,946.906314 C1241.98828,946.873236 1241.95931,946.83838 1241.92931,946.804235 C1241.85517,946.719939 1241.78517,946.632443 1241.71793,946.542812 C1241.6831,946.495862 1241.64793,946.448913 1241.61483,946.400541 C1241.55207,946.308776 1241.49448,946.213454 1241.43897,946.117065 C1241.41448,946.07474 1241.38759,946.034192 1241.36448,945.9908 C1241.29379,945.857065 1241.23069,945.718706 1241.17448,945.577502 C1241.1531,945.524151 1241.13586,945.46902 1241.11655,945.414957 C1241.08138,945.315368 1241.04862,945.215067 1241.02034,945.112631 C1241.00414,945.053944 1240.98966,944.994902 1240.97621,944.935504 C1240.95138,944.827378 1240.93138,944.717829 1240.91483,944.607569 C1240.9069,944.555284 1240.89759,944.503355 1240.89138,944.450359 C1240.87414,944.286747 1240.86207,944.121357 1240.86207,943.953122 C1240.86207,943.784886 1240.87414,943.619496 1240.89276,943.455528 C1240.89862,943.402532 1240.90828,943.350959 1240.91621,943.298319 C1240.93276,943.187703 1240.95276,943.078154 1240.97759,942.970384 C1240.99138,942.910986 1241.00586,942.851588 1241.02172,942.793256 C1241.04966,942.690821 1241.08241,942.59052 1241.11793,942.49093 C1241.13724,942.436512 1241.15448,942.381381 1241.17586,942.328385 C1241.23241,942.187181 1241.29517,942.048823 1241.36586,941.915088 C1241.38897,941.871695 1241.41586,941.831148 1241.44034,941.788822 C1241.49586,941.692434 1241.55345,941.597112 1241.61621,941.505347 C1241.64931,941.456975 1241.68448,941.410025 1241.71931,941.363076 C1241.78621,941.273445 1241.85655,941.185948 1241.93069,941.101653 C1241.96069,941.067508 1241.98966,941.032651 1242.02069,940.999573 C1242.24828,940.757001 1242.50448,940.538615 1242.78931,940.35224 C1243.42966,939.932184 1244.1869,939.685344 1245.00034,939.685344 C1245.81379,939.685344 1246.57069,939.931828 1247.21103,940.351884 Z M1239.47621,947.5099 C1239.39207,946.37671 1238.51276,945.469376 1237.41379,945.382591 L1237.41379,942.523653 C1238.51276,942.436867 1239.39207,941.529889 1239.47621,940.396344 L1241.62517,940.396344 C1241.62,940.401679 1241.61552,940.40737 1241.61034,940.412705 C1241.55138,940.472814 1241.4969,940.537192 1241.44103,940.600503 C1241.38724,940.660968 1241.33138,940.719299 1241.28103,940.782254 C1241.26172,940.80644 1241.24483,940.83276 1241.22586,940.857302 C1240.66034,941.586442 1240.30207,942.466033 1240.20276,943.410713 C1240.20138,943.42245 1240.19897,943.433832 1240.19759,943.445569 C1240.18103,943.612738 1240.17241,943.782396 1240.17241,943.953122 C1240.17241,944.123847 1240.18103,944.293505 1240.19724,944.46103 C1240.19828,944.472767 1240.20103,944.484149 1240.20241,944.495886 C1240.30172,945.440211 1240.66034,946.320157 1241.22552,947.049297 C1241.24448,947.073839 1241.26138,947.100159 1241.28069,947.124345 C1241.33138,947.186944 1241.3869,947.245631 1241.44069,947.306096 C1241.49655,947.369051 1241.55103,947.433785 1241.61,947.493894 C1241.61517,947.499229 1241.61966,947.50492 1241.62483,947.510255 L1239.47621,947.510255 L1239.47621,947.5099 Z" transform="translate(-1235 -935)"/>
</svg>
