<svg xmlns="http://www.w3.org/2000/svg" width="20" height="17" viewBox="0 0 20 17">
  <path fill="#323334" d="M661.66335,675.275506 L666.995005,675.275506 C667.194943,675.275506 667.328221,675.142866 667.328221,674.943886 L667.328221,671.95919 C667.328221,671.76021 667.194943,671.62757 666.995005,671.62757 L661.66335,671.62757 C661.463412,671.62757 661.330133,671.76021 661.330133,671.95919 L661.330133,674.943886 C661.330094,675.142827 661.463412,675.275506 661.66335,675.275506 Z M661.996566,672.29081 L666.661789,672.29081 L666.661789,674.612227 L661.996566,674.612227 L661.996566,672.29081 Z M670.69385,667.515296 C670.460602,667.216826 670.160696,667.050997 669.794131,667.017847 L668.994381,666.921388 L668.994381,665.989759 L668.994381,665.326519 C668.994381,664.596939 668.394568,664 667.661477,664 L652.332904,664 C651.599813,663.999961 651,664.5969 651,665.326519 L651,665.989798 L651,668.642874 L651,675.938785 C651,676.537784 651.404444,677.047087 651.954897,677.210312 C651.938105,677.881169 652.448142,678.463574 653.132693,678.525522 L668.527886,680.25 C668.561196,680.25 668.627854,680.25 668.661164,680.25 C669.327636,680.25 669.927449,679.752551 669.994068,679.122461 L670.993756,668.477044 C671.027066,668.145386 670.927097,667.780576 670.69385,667.515296 Z M651.666472,666.321417 L668.327948,666.321417 L668.327948,667.183676 L668.327948,668.311215 L651.666472,668.311215 L651.666472,666.321417 Z M652.332904,664.66324 L667.661437,664.66324 C668.028003,664.66324 668.327909,664.96171 668.327909,665.326519 L668.327909,665.658139 L651.666472,665.658139 L651.666472,665.326519 C651.666472,664.96171 651.966378,664.66324 652.332904,664.66324 Z M651.666472,675.938746 L651.666472,668.974455 L668.327948,668.974455 L668.327948,675.938746 C668.327948,676.303555 668.028042,676.602025 667.661477,676.602025 L652.366253,676.602025 L652.332943,676.602025 C651.966378,676.602025 651.666472,676.303555 651.666472,675.938746 Z M670.327285,668.344365 L669.327597,678.989782 C669.294287,679.354591 668.961032,679.619872 668.594505,679.586721 L653.232623,677.862243 C652.899407,677.829093 652.66612,677.563773 652.63281,677.265304 L667.661437,677.265304 C668.394529,677.265304 668.994342,676.668364 668.994342,675.938785 L668.994342,668.642835 L668.994342,667.548446 L669.760782,667.614786 C669.92741,667.614786 670.093998,667.714276 670.193967,667.846916 C670.293975,667.979556 670.360634,668.178536 670.327285,668.344365 Z M652.666159,670.964252 C652.466222,670.964252 652.332943,670.831612 652.332943,670.632632 C652.332943,670.433653 652.466222,670.301012 652.666159,670.301012 L655.332007,670.301012 C655.531944,670.301012 655.665223,670.433653 655.665223,670.632632 C655.665223,670.831612 655.531944,670.964252 655.332007,670.964252 L652.666159,670.964252 Z M656.664911,670.964252 C656.464973,670.964252 656.331694,670.831612 656.331694,670.632632 C656.331694,670.433653 656.464973,670.301012 656.664911,670.301012 L659.330758,670.301012 C659.530695,670.301012 659.663974,670.433653 659.663974,670.632632 C659.663974,670.831612 659.530695,670.964252 659.330758,670.964252 L656.664911,670.964252 Z M652.666159,672.29081 C652.466222,672.29081 652.332943,672.15817 652.332943,671.95919 C652.332943,671.76021 652.466222,671.62757 652.666159,671.62757 L656.998127,671.62757 C657.198064,671.62757 657.331343,671.76021 657.331343,671.95919 C657.331343,672.15817 657.198064,672.29081 656.998127,672.29081 L652.666159,672.29081 Z M659.330719,671.627531 C659.530656,671.627531 659.663935,671.760171 659.663935,671.959151 C659.663935,672.158131 659.530656,672.290771 659.330719,672.290771 L658.331031,672.290771 C658.131093,672.290771 657.997815,672.158131 657.997815,671.959151 C657.997815,671.760171 658.131093,671.627531 658.331031,671.627531 L659.330719,671.627531 Z" transform="translate(-651 -664)"/>
</svg>
