<svg xmlns="http://www.w3.org/2000/svg" width="27" height="21" viewBox="0 0 27 21">
  <path fill="#323334" fill-rule="evenodd" d="M954.522885,924.893666 L954.522885,943.479992 C954.522885,945.099142 956.104536,946.716751 957.700057,946.872913 C957.792007,946.88216 957.947655,946.886269 958.039092,946.886269 C959.239071,946.886269 960.296759,946.149124 961.11969,945.557353 C961.263523,945.454616 961.417116,945.35496 961.548621,945.266605 C962.708019,944.482714 963.859711,943.646427 964.965686,942.837366 C965.921149,942.139261 966.913084,941.4165 967.8968,940.738943 C968.809627,940.109673 969.716803,939.46756 970.620897,938.825962 L971.601017,938.131453 C973.168285,937.062978 974.522885,936.139878 974.522885,934.185288 C974.522885,932.157754 972.885242,931.087225 971.601017,930.248883 C971.408383,930.112241 971.211127,929.976627 971.01387,929.841013 C970.783737,929.682797 970.55309,929.52458 970.329121,929.363795 C968.354497,927.94447 966.419941,926.559049 964.454564,925.210613 C964.182309,925.02363 963.907998,924.833051 963.632147,924.641444 C962.913495,924.141624 962.169672,923.624852 961.429445,923.149689 C961.255304,923.037705 961.069862,922.894899 960.873119,922.744902 C960.132378,922.179843 959.210305,921.477115 958.093029,921.477115 C957.645605,921.477115 957.087225,921.592695 956.688088,921.819233 C955.748549,922.35347 954.522885,923.478964 954.522885,924.893666 Z" transform="rotate(90 951.023 -3.318)"/>
</svg>
