<svg xmlns="http://www.w3.org/2000/svg" width="20" height="16" viewBox="0 0 20 16">
  <path fill="#323334" d="M942,790 C941.447715,790 941,789.552285 941,789 C941,788.447715 941.447715,788 942,788 L960,788 C960.552285,788 961,788.447715 961,789 C961,789.552285 960.552285,790 960,790 L942,790 Z M945,797 C944.447715,797 944,796.552285 944,796 C944,795.447715 944.447715,795 945,795 L957,795 C957.552285,795 958,795.447715 958,796 C958,796.552285 957.552285,797 957,797 L945,797 Z M948,804 C947.447715,804 947,803.552285 947,803 C947,802.447715 947.447715,802 948,802 L954,802 C954.552285,802 955,802.447715 955,803 C955,803.552285 954.552285,804 954,804 L948,804 Z" transform="translate(-941 -788)"/>
</svg>
