<svg xmlns="http://www.w3.org/2000/svg" width="20" height="19" viewBox="0 0 20 19">
  <path fill="#323334" d="M666.809867,1068.31332 C666.809867,1066.3706 666.073923,1065.48056 664.790833,1065.23597 C664.225917,1065.12829 663.602533,1065.15883 663.002497,1065.27725 C662.801903,1065.31684 662.656052,1065.35542 662.583687,1065.37849 L662.49707,1065.40609 L662.406158,1065.40609 C661.170792,1065.40609 660.485831,1066.10318 660.164221,1067.28242 C660.079274,1067.59389 659.757916,1067.77752 659.446447,1067.69257 C659.134977,1067.60763 658.951344,1067.28627 659.03629,1066.9748 C659.475749,1065.36345 660.529436,1064.27243 662.318036,1064.23782 C662.430707,1064.20591 662.585962,1064.16778 662.776129,1064.13025 C663.510812,1063.98525 664.276452,1063.94774 665.009756,1064.08753 C666.844336,1064.43724 667.978993,1065.80947 667.978993,1068.31332 C667.978993,1071.32412 668.326433,1072.24913 669.40247,1073.28077 C669.594809,1073.46373 669.699051,1073.56363 669.803088,1073.66766 L670.545408,1074.40998 L669.523434,1074.65008 C668.36126,1074.92312 667.175537,1075.08123 665.98337,1075.12241 C665.982646,1075.411 666.009881,1075.53619 666.127103,1075.68826 C666.361459,1075.99229 666.914541,1076.26962 667.91437,1076.46959 C669.008555,1076.68842 669.807458,1077.18663 670.331946,1077.88181 C670.781868,1078.47815 670.95101,1079.07638 670.971316,1079.50956 L671,1080.1215 L663.840287,1080.1215 C663.517441,1080.1215 663.255723,1079.85978 663.255723,1079.53693 C663.255723,1079.21409 663.517441,1078.95237 663.840287,1078.95237 L669.621402,1078.95237 C669.561734,1078.82735 669.487977,1078.70434 669.398649,1078.58595 C669.047553,1078.12059 668.499678,1077.77893 667.685085,1077.61601 C666.433591,1077.36571 665.635518,1076.96554 665.201144,1076.40202 C664.882875,1075.98914 664.811036,1075.63726 664.814342,1075.09789 C664.814508,1075.07079 664.814508,1075.07079 664.814558,1075.04749 L664.814558,1073.96559 L665.397625,1073.9641 C666.339051,1073.96169 667.278045,1073.88137 668.20503,1073.72425 C667.180537,1072.5766 666.809867,1071.27822 666.809867,1068.31332 Z M661.114778,1077.99115 C661.308128,1078.28597 661.876617,1078.55177 663.01579,1078.70841 C664.222301,1078.8743 665.056419,1079.4752 665.539876,1080.35829 C665.877194,1080.97444 665.986651,1081.58418 665.9837,1082.03385 L665.976165,1082.61563 L651,1082.61563 L651.103608,1081.94218 C651.169417,1081.51442 651.37089,1080.91349 651.793373,1080.3083 C652.398978,1079.4408 653.297687,1078.85693 654.509182,1078.70736 C656.287518,1078.48781 656.708616,1078.09841 656.708616,1077.54163 L656.708616,1077.48649 C656.061546,1076.87504 655.58212,1076.24332 655.314119,1075.54374 C654.91205,1075.37226 654.643129,1074.96299 654.462715,1074.42175 C654.327822,1074.01707 654.245657,1073.50765 654.245657,1073.23924 C654.245657,1073.01227 654.274764,1072.69336 654.333425,1072.42743 C654.389142,1072.17485 654.464808,1071.95844 654.579266,1071.79559 C654.150718,1069.59649 654.770296,1067.63366 656.353331,1067.488 C660.054563,1065.05231 663.966596,1067.41076 662.938081,1071.84986 C663.052321,1072.01864 663.127397,1072.23526 663.183544,1072.48979 C663.241739,1072.7536 663.271312,1073.06219 663.271312,1073.27042 C663.271312,1073.52439 663.188151,1074.03583 663.054761,1074.43971 C662.875441,1074.98265 662.610763,1075.39385 662.213945,1075.56963 C661.96795,1076.29567 661.56235,1076.95793 661.026589,1077.50733 C661.026589,1077.78561 661.043564,1077.88257 661.114778,1077.99115 Z M664.514371,1080.91971 C664.204621,1080.35392 663.686655,1079.98078 662.856534,1079.86663 C661.415516,1079.66849 660.551879,1079.26469 660.137145,1078.63231 C659.907474,1078.28212 659.857463,1077.99647 659.857463,1077.54163 L659.857463,1077.00566 L660.044835,1076.83214 C660.598377,1076.31952 660.994274,1075.65969 661.186095,1074.93004 L661.3007,1074.4941 L661.751448,1074.4941 C661.748019,1074.4941 661.845573,1074.37293 661.944616,1074.07305 C662.039143,1073.78685 662.102185,1073.39914 662.102185,1073.27042 C662.102185,1073.14248 662.080599,1072.91722 662.041864,1072.74163 C662.027873,1072.6782 662.012371,1072.62413 661.997275,1072.58294 L661.556842,1072.46282 L661.71938,1071.89393 C662.754241,1068.27192 659.858312,1066.48102 656.877678,1068.54453 L656.727542,1068.64847 L656.544939,1068.64847 C655.771263,1068.64847 655.348729,1070.09716 655.802627,1071.91275 L655.984212,1072.63909 L655.484529,1072.63909 C655.481355,1072.65183 655.4782,1072.66524 655.475105,1072.67927 C655.436374,1072.85485 655.414783,1073.09141 655.414783,1073.23924 C655.414783,1073.38237 655.476811,1073.76693 655.571846,1074.05204 C655.66994,1074.34632 655.765342,1074.46293 655.765521,1074.46293 L656.21066,1074.46293 L656.329036,1074.89204 C656.507735,1075.53982 656.980412,1076.16562 657.682963,1076.79422 L657.877743,1076.96849 L657.877743,1077.54163 C657.877743,1078.74481 656.973335,1079.58115 654.652431,1079.86768 C653.785483,1079.97471 653.175374,1080.37108 652.752012,1080.97753 C652.646998,1081.12796 652.557799,1081.28575 652.483342,1081.44651 L664.724642,1081.44651 C664.675164,1081.2648 664.605893,1081.08689 664.514371,1080.91971 Z M655.520706,1072.51715 C655.524499,1072.51198 655.527891,1072.50684 655.530883,1072.50177 C655.529826,1072.50356 655.528719,1072.50559 655.527567,1072.50786 L655.520706,1072.51715 Z M661.982339,1072.54606 C661.979425,1072.53963 661.976552,1072.53377 661.973736,1072.52849 C661.974682,1072.53027 661.975876,1072.53221 661.977333,1072.5343 L661.982339,1072.54606 Z" transform="translate(-651 -1064)"/>
</svg>
