<svg xmlns="http://www.w3.org/2000/svg" width="20" height="20" viewBox="0 0 20 20">
  <path fill="#323334" d="M965,1084 C959.476875,1084 955,1079.52278 955,1074.00062 C955,1068.47722 959.476875,1064 965,1064 C970.5225,1064 975,1068.47722 975,1074.00062 C975,1079.52278 970.5225,1084 965,1084 Z M965,1082.75008 C966.861875,1082.75008 968.580625,1082.15887 969.99875,1081.16768 L967.533125,1078.28911 C966.788125,1078.7297 965.92875,1079.00031 965,1079.00031 C964.07125,1079.00031 963.211875,1078.7297 962.466875,1078.28911 L960.00125,1081.16768 C961.419375,1082.15887 963.138125,1082.75008 965,1082.75008 Z M968.75,1074.00062 C968.75,1071.93013 967.070625,1070.25086 965,1070.25086 C962.92875,1070.25086 961.25,1071.93013 961.25,1074.00062 C961.25,1076.07112 962.92875,1077.74977 965,1077.74977 C967.070625,1077.74977 968.75,1076.07112 968.75,1074.00062 Z M956.25,1074.00062 C956.25,1076.51859 957.329375,1078.77158 959.031875,1080.36773 L961.46125,1077.53165 C960.558125,1076.62671 960,1075.37866 960,1074.00062 C960,1072.79445 960.44375,1071.70389 961.15375,1070.84082 L958.689375,1067.96288 C957.185625,1069.53403 956.25,1071.6539 956.25,1074.00062 Z M965,1065.24992 C962.96625,1065.24992 961.119375,1065.97175 959.63375,1067.13543 L962.063125,1069.97088 C962.88875,1069.36716 963.89875,1069.00094 965,1069.00094 C966.10125,1069.00094 967.110625,1069.36716 967.936875,1069.97088 L970.365625,1067.13543 C968.88,1065.97175 967.033125,1065.24992 965,1065.24992 Z M971.310625,1067.96288 L968.84625,1070.84082 C969.55625,1071.70389 970.000625,1072.79445 970.000625,1074.00062 C970.000625,1075.37866 969.441875,1076.62671 968.53875,1077.53165 L970.968125,1080.36773 C972.671875,1078.77095 973.750625,1076.51859 973.750625,1074.00062 C973.75,1071.6539 972.81375,1069.53465 971.310625,1067.96288 Z" transform="translate(-955 -1064)"/>
</svg>
