<svg xmlns="http://www.w3.org/2000/svg" width="20" height="30" viewBox="0 0 20 30">
  <path fill="#323334" d="M1257,664 C1262.52707,664 1267,668.548746 1267,674.150659 C1267,675.225306 1266.85918,676.342337 1266.5888,677.497171 C1265.90358,680.423886 1264.41808,683.505655 1262.37368,686.624233 C1261.37833,688.142571 1260.31354,689.571915 1259.24831,690.871856 C1258.87489,691.327552 1258.52759,691.735074 1258.21505,692.089243 C1258.02531,692.304241 1257.88775,692.455328 1257.811,692.537284 L1257,693.403265 L1256.189,692.537284 C1256.11225,692.455328 1255.97469,692.304241 1255.78495,692.089243 C1255.47241,691.735074 1255.12511,691.327552 1254.75169,690.871856 C1253.68646,689.571915 1252.62167,688.142571 1251.62632,686.624233 C1249.58192,683.505655 1248.09642,680.423886 1247.4112,677.497171 C1247.14082,676.342337 1247,675.225306 1247,674.150659 C1247,668.548746 1251.47293,664 1257,664 Z M1257.52947,689.463361 C1258.54757,688.220928 1259.56612,686.853663 1260.51521,685.405899 C1262.42914,682.486342 1263.80823,679.625314 1264.42509,676.990588 C1264.65818,675.994998 1264.77778,675.046351 1264.77778,674.150659 C1264.77778,669.767763 1261.29133,666.222222 1257,666.222222 C1252.70867,666.222222 1249.22222,669.767763 1249.22222,674.150659 C1249.22222,675.046351 1249.34182,675.994998 1249.57491,676.990588 C1250.19177,679.625314 1251.57086,682.486342 1253.48479,685.405899 C1254.43388,686.853663 1255.45243,688.220928 1256.47053,689.463361 C1256.65436,689.687688 1256.83125,689.899422 1257,690.097816 C1257.16875,689.899422 1257.34564,689.687688 1257.52947,689.463361 Z M1257,678.877589 C1254.41845,678.877589 1252.33333,676.757129 1252.33333,674.150659 C1252.33333,671.544189 1254.41845,669.423729 1257,669.423729 C1259.58155,669.423729 1261.66667,671.544189 1261.66667,674.150659 C1261.66667,676.757129 1259.58155,678.877589 1257,678.877589 Z M1257,676.655367 C1258.34581,676.655367 1259.44444,675.538112 1259.44444,674.150659 C1259.44444,672.763206 1258.34581,671.645951 1257,671.645951 C1255.65419,671.645951 1254.55556,672.763206 1254.55556,674.150659 C1254.55556,675.538112 1255.65419,676.655367 1257,676.655367 Z" transform="translate(-1247 -664)"/>
</svg>
