<svg xmlns="http://www.w3.org/2000/svg" width="18" height="21" viewBox="0 0 18 21">
  <path fill="#323334" fill-rule="evenodd" d="M1260.38128,805.093502 C1260.01261,805.093502 1259.71461,805.383056 1259.71461,805.740627 L1259.71461,810.27504 L1242.38128,810.27504 L1242.38128,805.740627 C1242.38128,805.383056 1242.08261,805.093502 1241.71461,805.093502 C1241.34594,805.093502 1241.04794,805.383056 1241.04794,805.740627 L1241.04794,810.922813 C1241.04794,811.281032 1241.34594,811.571234 1241.71461,811.571234 L1260.38128,811.571234 C1260.74928,811.571234 1261.04794,811.281032 1261.04794,810.922813 L1261.04794,805.740627 C1261.04794,805.383056 1260.74928,805.093502 1260.38128,805.093502 M1247.52528,799.589484 L1250.38128,796.351914 L1250.38128,806.255072 C1250.38128,806.612642 1250.67928,806.902197 1251.04794,806.902197 C1251.41594,806.902197 1251.71461,806.612642 1251.71461,806.255072 L1251.71461,796.351914 L1254.56994,799.589484 C1254.83328,799.845355 1255.25861,799.845355 1255.52128,799.589484 C1255.78394,799.33491 1255.78394,798.920335 1255.52128,798.66576 L1251.52528,794.134586 C1251.51794,794.12746 1251.50661,794.130699 1251.49928,794.124221 C1251.38594,794.021873 1251.23728,793.958391 1251.07128,793.952561 L1251.06728,793.952561 C1250.88728,793.946084 1250.70728,794.001792 1250.56994,794.134586 L1246.57394,798.66576 C1246.31128,798.920335 1246.31128,799.33491 1246.57394,799.589484 C1246.83661,799.845355 1247.26261,799.845355 1247.52528,799.589484" transform="rotate(90 1026.048 -214.238)"/>
</svg>
