<svg xmlns="http://www.w3.org/2000/svg" width="20" height="16" viewBox="0 0 20 16">
  <path fill="#323334" d="M652,1202 C651.447715,1202 651,1201.55228 651,1201 C651,1200.44772 651.447715,1200 652,1200 L670,1200 C670.552285,1200 671,1200.44772 671,1201 C671,1201.55228 670.552285,1202 670,1202 L652,1202 Z M652,1209 C651.447715,1209 651,1208.55228 651,1208 C651,1207.44772 651.447715,1207 652,1207 L670,1207 C670.552285,1207 671,1207.44772 671,1208 C671,1208.55228 670.552285,1209 670,1209 L652,1209 Z M652,1216 C651.447715,1216 651,1215.55228 651,1215 C651,1214.44772 651.447715,1214 652,1214 L664,1214 C664.552285,1214 665,1214.44772 665,1215 C665,1215.55228 664.552285,1216 664,1216 L652,1216 Z" transform="translate(-651 -1200)"/>
</svg>
