<svg xmlns="http://www.w3.org/2000/svg" width="20" height="20" viewBox="0 0 20 20">
  <path fill="#323334" fill-rule="evenodd" d="M812.165489,658.200325 C812.673338,658.995247 813.041091,659.865845 813.24373,660.788354 C814.15248,661.872225 814.712865,663.21127 814.712865,664.67978 C814.712865,667.252799 813.047345,669.454938 810.655075,670.488148 L811.496904,670.489399 L811.496904,672.416974 L809.107762,670.982238 C808.63306,671.073551 808.141472,671.125461 807.63675,671.125461 C806.99631,671.125461 806.387767,671.022891 805.797361,670.878416 C805.044968,671.036025 804.263181,671.129214 803.455125,671.129214 C803.289386,671.129214 803.1274,671.114204 802.962912,671.107949 C804.29758,671.941022 805.90556,672.427606 807.63675,672.427606 C808.086434,672.427606 808.517981,672.368191 808.947652,672.306273 L812.782788,674.995622 L812.782788,670.747702 C814.727875,669.330477 816,667.158359 816,664.690412 C816,661.964788 814.468322,659.578773 812.165489,658.200325 M801.47564,668.259116 L799.917068,669.195384 L799.917068,667.402902 C798.303459,666.258991 797.247107,664.495903 797.247107,662.493902 C797.247107,659.041529 800.327975,656.243355 804.128088,656.243355 C807.928826,656.243355 811.009069,659.041529 811.009069,662.493902 C811.009069,665.944399 807.928826,668.742573 804.128088,668.742573 C803.188067,668.742573 802.292451,668.569329 801.47564,668.259116 M812.256802,662.502658 C812.256802,658.358559 808.617424,655 804.128088,655 C799.639377,655 796,658.358559 796,662.502658 C796,664.682282 797.023203,666.627994 798.630559,667.998937 L798.630559,671.773407 L801.693915,669.62568 C802.466946,669.850835 803.274376,670.005942 804.128088,670.005942 C808.617424,670.005942 812.256802,666.646757 812.256802,662.502658" transform="translate(-796 -655)"/>
</svg>
