<svg xmlns="http://www.w3.org/2000/svg" width="20" height="20" viewBox="0 0 20 20">
  <path fill="#323334" d="M1096.00031,684.000625 C1086.62502,679.624238 1086,665.249414 1086,665.249414 C1087.70443,666.272571 1089.22323,666.643833 1090.53077,666.643833 C1094.0165,666.643833 1095.99969,664 1095.99969,664 C1095.99969,664 1097.98287,666.643833 1101.46923,666.643833 C1102.77677,666.643833 1104.29495,666.272571 1106,665.249414 C1106.00062,665.249414 1105.37561,679.624238 1096.00031,684.000625 Z M1096.00031,682.604331 C1100.34482,680.292384 1102.54489,675.480984 1103.6518,671.500234 L1088.35507,671.500234 C1089.46511,675.482234 1091.6658,680.295509 1096.00031,682.604331 Z M1101.46986,667.893872 C1098.9154,667.893872 1097.05472,666.702584 1096.00031,665.785681 C1094.94653,666.702584 1093.08522,667.893872 1090.53139,667.893872 C1089.52761,667.893872 1088.50758,667.708241 1087.48067,667.339479 C1087.5988,668.152005 1087.77568,669.150786 1088.03506,670.24957 L1103.97306,670.24957 C1104.23119,669.150161 1104.40745,668.15138 1104.52433,667.338229 C1103.49555,667.708866 1102.47426,667.893872 1101.46986,667.893872 Z" transform="translate(-1086 -664)"/>
</svg>
