<svg xmlns="http://www.w3.org/2000/svg" width="20" height="20" viewBox="0 0 20 20">
  <path fill="#323334" d="M1366,684.999851 L1375.09088,684.999851 L1375.09088,675.908869 L1366,675.908869 L1366,684.999851 Z M1367.81804,677.727205 L1373.27265,677.727205 L1373.27265,683.167684 L1367.81804,683.167684 L1367.81804,677.727205 Z M1369.63632,679.545242 L1369.63632,681.363627 L1371.45446,681.363627 L1371.45446,679.545242 L1369.63632,679.545242 Z M1380.54509,683.181814 L1382.36368,683.181814 L1382.36368,685 L1380.54509,685 L1380.54509,683.181814 Z M1384.18147,683.181814 L1386,683.181814 L1386,685 L1384.18147,685 L1384.18147,683.181814 Z M1384.18166,677.727205 L1384.18166,675.908869 L1385.99985,675.908869 L1385.99985,681.363627 L1380.54509,681.363627 L1380.54509,679.545242 L1378.7272,679.545242 L1378.7272,684.999851 L1376.90887,684.999851 L1376.90887,675.908869 L1382.36363,675.908869 L1382.36363,677.727205 L1384.18166,677.727205 Z M1366,674.091081 L1366,665 L1375.09088,665 L1375.09088,674.091081 L1366,674.091081 Z M1367.81804,666.818037 L1367.81804,672.272646 L1373.27265,672.272646 L1373.27265,666.818037 L1367.81804,666.818037 Z M1369.63632,668.636323 L1371.45446,668.636323 L1371.45446,670.454609 L1369.63632,670.454609 L1369.63632,668.636323 Z M1376.90887,665 L1386,665 L1386,674.091081 L1376.90887,674.091081 L1376.90887,665 Z M1384.18166,672.272646 L1384.18166,666.818037 L1378.7272,666.818037 L1378.7272,672.272646 L1384.18166,672.272646 Z M1380.54509,668.636323 L1382.36368,668.636323 L1382.36368,670.454609 L1380.54509,670.454609 L1380.54509,668.636323 Z" transform="translate(-1366 -665)"/>
</svg>
