<svg xmlns="http://www.w3.org/2000/svg" width="20" height="19" viewBox="0 0 20 19">
  <path fill="#323334" d="M1105.33333,789.338296 L1104.66667,789.338296 L1104.66667,801.388989 C1104.66667,802.128098 1104.06933,802.727955 1103.33333,802.727955 L1098.24133,802.727955 L1099.9,805.795526 C1100.10467,806.10014 1099.98333,806.48911 1099.62933,806.665184 C1099.27467,806.839919 1098.822,806.736149 1098.61733,806.432204 L1096.76533,803.007799 C1096.706,802.918758 1096.68133,802.823691 1096.67467,802.727955 L1095.324,802.727955 C1095.31733,802.823691 1095.29333,802.918758 1095.23333,803.007799 L1093.382,806.432204 C1093.17733,806.736149 1092.72467,806.83925 1092.37,806.665184 C1092.016,806.48911 1091.89467,806.10014 1092.09867,805.795526 L1093.758,802.727955 L1088.66667,802.727955 C1087.93067,802.727955 1087.33333,802.128098 1087.33333,801.388989 L1087.33333,789.338296 L1086.66667,789.338296 C1086.29867,789.338296 1086,789.039038 1086,788.668813 C1086,788.299259 1086.298,788 1086.66667,788 L1088.66667,788 L1103.33333,788 L1105.33333,788 C1105.70133,788 1106,788.299259 1106,788.668813 C1106,789.039038 1105.70133,789.338296 1105.33333,789.338296 Z M1103.33333,789.339635 L1102.67333,789.339635 C1102.67067,789.339635 1102.66867,789.338296 1102.66667,789.338296 L1089.33333,789.338296 C1089.33067,789.338296 1089.32867,789.339635 1089.326,789.339635 L1088.66667,789.339635 L1088.66667,790.007779 L1088.66667,800.719506 C1088.66667,801.089061 1088.96467,801.388989 1089.33333,801.388989 L1102.66667,801.388989 C1103.03467,801.388989 1103.33333,801.089061 1103.33333,800.719506 L1103.33333,790.679271 L1103.33333,789.339635 Z M1092,796.033126 C1092.368,796.033126 1092.66667,796.333054 1092.66667,796.702609 L1092.66667,799.38054 C1092.66667,799.750764 1092.368,800.050023 1092,800.050023 C1091.63133,800.050023 1091.33333,799.751434 1091.33333,799.38054 L1091.33333,796.702609 C1091.33333,796.333054 1091.63133,796.033126 1092,796.033126 Z M1095.99267,790.679271 L1096.00667,790.679271 C1096.37133,790.682618 1096.666,790.979199 1096.666,791.346745 L1096.666,799.38054 C1096.666,799.750764 1096.36733,800.050023 1095.99933,800.050023 C1095.63133,800.050023 1095.33267,799.751434 1095.33267,799.38054 L1095.33267,791.346745 C1095.33333,790.979199 1095.628,790.682618 1095.99267,790.679271 Z M1100,792.685711 C1100.368,792.685711 1100.66667,792.985639 1100.66667,793.355194 L1100.66667,799.38054 C1100.66667,799.750764 1100.368,800.050023 1100,800.050023 C1099.63133,800.050023 1099.33333,799.751434 1099.33333,799.38054 L1099.33333,793.355194 C1099.33333,792.985639 1099.63133,792.685711 1100,792.685711 Z" transform="translate(-1086 -788)"/>
</svg>
