<svg xmlns="http://www.w3.org/2000/svg" width="20" height="28" viewBox="0 0 20 28">
  <path fill="#323334" d="M829.999934,1347.33125 L829.996626,1347.33621 C830.000797,1347.34045 830.000797,1347.34966 829.99828,1347.35548 C830.000797,1347.98549 829.484425,1348.50107 828.85435,1348.49941 C828.222621,1348.50452 827.707903,1347.98966 827.711283,1347.35548 C827.710492,1347.34642 827.712937,1347.34045 827.715454,1347.33297 L827.707975,1347.33463 C827.707975,1347.33463 827.656194,1340.4302 827.656194,1339.75748 C827.840016,1339.42162 828.860247,1336.77273 826.436174,1336.10677 C826.435311,1322.90231 829.591367,1321.12161 829.591367,1321.12161 L829.977424,1321.12327 C829.977424,1321.12327 829.999934,1338.07366 829.997417,1338.77975 C829.999934,1339.55352 829.999934,1347.33125 829.999934,1347.33125 Z M824.403983,1321.60994 L825.147545,1328.05646 C825.147545,1328.05646 825.149271,1328.19433 825.145891,1328.24906 C825.092456,1329.02657 824.743149,1329.71892 824.2134,1330.22106 C824.21002,1330.22566 824.204986,1330.23156 824.203331,1330.23487 C822.030756,1332.45167 823.330173,1335.43642 823.331827,1336.15085 C823.331827,1336.9431 823.330173,1347.31449 823.330173,1347.31449 L823.328519,1347.31449 C823.328519,1347.31945 823.331899,1347.32614 823.332762,1347.33693 C823.332762,1347.97794 822.80963,1348.501 822.16625,1348.501 C821.523733,1348.49934 821.001895,1347.97959 821.001032,1347.33614 C821.001895,1347.32614 821.00434,1347.32024 821.00434,1347.31197 L821.002758,1347.31197 C821.002758,1347.31197 821.002758,1336.81106 821.001104,1336.12921 C821.001104,1335.51258 822.539002,1332.91842 820.285806,1330.37532 C819.602296,1329.82673 819.16489,1328.9832 819.16489,1328.04021 C819.16489,1327.9529 819.18366,1327.72269 819.18366,1327.72269 L819.944482,1321.60742 L820.569883,1321.60742 L820.338882,1328.83786 L821.146882,1328.83786 L821.148536,1321.60994 L821.811981,1321.60915 L821.811981,1328.83786 L822.495491,1328.83786 L822.495491,1321.60994 L823.097086,1321.60828 L823.097086,1328.79154 L823.921053,1328.79319 L823.717956,1321.60915 L824.403983,1321.60994 Z M814.010444,1321.00165 L814.010444,1321 C813.998362,1321 813.956505,1321 813.944423,1321 C813.944423,1321 813.944423,1321.00086 813.944423,1321.00165 C811.421391,1321.04265 810,1323.45831 810,1326.08418 C809.999137,1328.73178 811.591333,1330.62099 812.979282,1331.04092 C813.740104,1332.10632 813.238762,1334.62518 812.701462,1336.0775 C812.701462,1336.77266 812.701462,1347.41733 812.701462,1347.41733 L812.703979,1347.41733 C812.703116,1347.42481 812.701462,1347.43323 812.701462,1347.44157 C812.701462,1348.0925 813.229125,1348.62139 813.881351,1348.62139 C813.914793,1348.62139 814.040506,1348.62139 814.073948,1348.62139 C814.72567,1348.62139 815.253837,1348.0925 815.253837,1347.44157 C815.253837,1347.43323 815.252974,1347.42489 815.25132,1347.41733 L815.253837,1347.41733 C815.253837,1347.41733 815.253837,1336.77266 815.253837,1336.0775 C814.716536,1334.62518 814.215627,1332.10632 814.975586,1331.04092 C816.364325,1330.62107 817.954867,1328.73178 817.95573,1326.08418 C817.955658,1323.45831 816.533908,1321.04265 814.010444,1321.00165 Z M812.693551,1330.01523 C812.53605,1329.89369 812.335039,1329.69936 812.124462,1329.44369 C811.910578,1329.18846 811.689142,1328.87216 811.48022,1328.50825 C811.379103,1328.32522 811.283452,1328.13011 811.194417,1327.92378 C811.109625,1327.70817 811.039433,1327.50054 810.991824,1327.25487 C810.904515,1326.78236 810.919114,1326.33072 810.96845,1325.91503 C811.014837,1325.4997 811.103009,1325.12077 811.201177,1324.80533 C811.29726,1324.48781 811.407582,1324.23251 811.499062,1324.05832 C811.588025,1323.88118 811.660734,1323.79718 811.660734,1323.79718 C811.660734,1323.79718 811.645272,1323.90995 811.637792,1324.0968 C811.631895,1324.284 811.62233,1324.55261 811.612693,1324.87344 C811.605213,1325.50596 811.552929,1326.36581 811.671162,1327.12994 C811.693313,1327.30873 811.756745,1327.5114 811.818235,1327.69313 C811.875482,1327.88285 811.944811,1328.07042 812.019174,1328.25007 C812.161285,1328.61268 812.314542,1328.94904 812.446224,1329.23894 C812.579848,1329.5264 812.698585,1329.76704 812.791288,1329.92871 C812.879459,1330.09455 812.959648,1330.16561 812.965473,1330.15892 C812.967199,1330.16733 812.847743,1330.14101 812.693551,1330.01523 Z" transform="translate(-810 -1321)"/>
</svg>
