<svg xmlns="http://www.w3.org/2000/svg" width="20" height="15" viewBox="0 0 20 15">
  <path fill="#323334" d="M669.333333,547 C670.252115,547 671,547.747455 671,548.666667 L671,549.916657 C671,550.146968 670.813634,550.333333 670.583324,550.333333 C670.353013,550.333333 670.166647,550.146968 670.166647,549.916657 L670.166647,548.666667 C670.166647,548.207295 669.793134,547.833353 669.333333,547.833353 L668.083343,547.833353 C667.853032,547.833353 667.666667,547.646987 667.666667,547.416676 C667.666667,547.186366 667.853032,547 668.083343,547 L669.333333,547 Z M651.416676,550.333333 C651.186366,550.333333 651,550.147004 651,549.916691 L651,548.666686 C651,547.747464 651.747885,547 652.666667,547 L653.916657,547 C654.146968,547 654.333294,547.186368 654.333333,547.416642 C654.333333,547.646956 654.146968,547.833324 653.916657,547.833324 L652.666667,547.833324 C652.206905,547.833324 651.833353,548.20727 651.833353,548.666647 L651.833353,549.916652 C651.833353,550.146965 651.646987,550.333333 651.416676,550.333333 Z M670.577661,558.666667 C670.807524,558.666667 670.993528,558.852671 670.993528,559.082495 L670.993528,560.330058 C670.993528,561.247485 670.247096,561.993489 669.330097,561.993528 L668.082534,561.993528 C667.852671,561.993528 667.666667,561.807524 667.666667,561.577661 C667.666667,561.347797 667.852671,561.161793 668.082534,561.161793 L669.330097,561.161793 C669.788967,561.161793 670.161793,560.788577 670.161793,560.330097 L670.161793,559.082534 C670.161793,558.852671 670.347797,558.666667 670.577661,558.666667 Z M653.916657,561.166676 C654.146968,561.166676 654.333294,561.353044 654.333333,561.583319 C654.333333,561.813632 654.146968,562 653.916657,562 L652.666667,562 C651.747885,562 651,561.252536 651,560.333314 L651,559.083309 C651,558.853035 651.186366,558.666667 651.416676,558.666667 C651.646987,558.666667 651.833353,558.853035 651.833353,559.083348 L651.833353,560.333353 C651.833353,560.79273 652.206866,561.166676 652.666667,561.166676 L653.916657,561.166676 Z M670.545146,553.653684 C670.77501,553.653684 670.961014,553.839688 670.961053,554.069513 C670.961053,554.299376 670.775049,554.48538 670.545185,554.48538 L651.415867,554.48538 C651.186004,554.48538 651,554.299376 651,554.069513 C651,553.839688 651.186004,553.653684 651.415867,553.653684 L670.545146,553.653684 Z" transform="translate(-651 -547)"/>
</svg>
