<svg xmlns="http://www.w3.org/2000/svg" width="20" height="20" viewBox="0 0 20 20">
  <path fill="#323334" d="M823.826052,1209.82605 C823.59412,1210.05861 823.216529,1210.05861 822.983973,1209.82605 L817.411998,1204.25408 C815.988528,1205.48375 814.155585,1206.25331 812.126968,1206.25331 C807.637756,1206.25331 804,1202.61556 804,1198.12634 C804,1193.63713 807.637756,1190 812.126968,1190 C816.615555,1190 820.253937,1193.63713 820.253937,1198.12634 C820.253937,1200.15558 819.48375,1201.9879 818.254077,1203.412 L823.826052,1208.98397 C824.057983,1209.2159 824.057983,1209.5935 823.826052,1209.82605 Z M819.003634,1198.12634 C819.003634,1194.32917 815.924138,1191.24968 812.126968,1191.24968 C808.328548,1191.24968 805.250303,1194.32917 805.250303,1198.12634 C805.250303,1201.92414 808.328548,1205.00363 812.126968,1205.00363 C815.924138,1205.00363 819.003634,1201.92414 819.003634,1198.12634 Z" transform="translate(-804 -1190)"/>
</svg>
