<svg xmlns="http://www.w3.org/2000/svg" width="20" height="20" viewBox="0 0 20 20">
  <path fill="#323334" d="M955,1329.125 C955,1330.28832 955.798359,1331.25758 956.875,1331.53711 L956.875,1339.75 L955.625,1339.75 C955.280742,1339.75 955,1340.02953 955,1340.375 C955,1340.72047 955.280781,1341 955.625,1341 L974.375,1341 C974.72168,1341 975,1340.72047 975,1340.375 C975,1340.02953 974.72168,1339.75 974.375,1339.75 L973.125,1339.75 L973.125,1331.53711 C974.201641,1331.25758 975,1330.28832 975,1329.125 L975,1328.5 L955,1328.5 L955,1329.125 Z M967.5,1331.625 C968.881836,1331.625 970,1330.50563 970,1329.125 C970,1330.28832 970.798359,1331.25758 971.875,1331.53711 L971.875,1339.75 L962.5,1339.75 L962.5,1331.625 C963.881836,1331.625 965,1330.50563 965,1329.125 C965,1330.50563 966.120625,1331.625 967.5,1331.625 Z M961.875,1331.53711 L961.875,1339.75 L958.125,1339.75 L958.125,1331.53711 C959.20168,1331.25758 960,1330.28832 960,1329.125 C960,1330.28832 960.798359,1331.25758 961.875,1331.53711 Z M972.5,1322.875 L957.5,1322.875 L955,1327.875 L975,1327.875 L972.5,1322.875 Z M960.280781,1324.26418 L959.030781,1326.76418 C958.974609,1326.87406 958.864766,1326.93754 958.75,1326.93754 C958.703594,1326.93754 958.656016,1326.92777 958.61082,1326.90457 C958.456992,1326.82766 958.393516,1326.63969 958.471641,1326.48586 L959.721641,1323.98586 C959.799766,1323.83203 959.986523,1323.7698 960.140352,1323.84547 C960.29543,1323.92238 960.356445,1324.11035 960.280781,1324.26418 Z M962.780781,1324.26418 L961.530781,1326.76418 C961.474609,1326.87406 961.364766,1326.93754 961.25,1326.93754 C961.203594,1326.93754 961.156016,1326.92777 961.11082,1326.90457 C960.956992,1326.82766 960.893516,1326.63969 960.971641,1326.48586 L962.221641,1323.98586 C962.299766,1323.83203 962.487773,1323.7698 962.640352,1323.84547 C962.79543,1323.92238 962.856445,1324.11035 962.780781,1324.26418 Z M965.3125,1326.625 C965.3125,1326.79836 965.173359,1326.9375 965,1326.9375 C964.827891,1326.9375 964.6875,1326.79832 964.6875,1326.625 L964.6875,1324.125 C964.6875,1323.95164 964.827891,1323.8125 965,1323.8125 C965.173359,1323.8125 965.3125,1323.95168 965.3125,1324.125 L965.3125,1326.625 Z M968.901367,1326.89844 C968.852539,1326.92531 968.801289,1326.9375 968.75,1326.9375 C968.640156,1326.9375 968.532734,1326.87891 968.476562,1326.77516 L967.109375,1324.27516 C967.026367,1324.12379 967.0825,1323.93336 967.233906,1323.85156 C967.382852,1323.76855 967.575703,1323.82227 967.658711,1323.97484 L969.025898,1326.47484 C969.106445,1326.62621 969.052734,1326.81664 968.901367,1326.89844 Z M971.389141,1326.90453 C971.345234,1326.92773 971.298828,1326.9375 971.25,1326.9375 C971.135234,1326.9375 971.025391,1326.87402 970.97168,1326.76414 L969.72168,1324.26414 C969.643555,1324.11031 969.707031,1323.92234 969.86082,1323.84543 C970.012187,1323.76852 970.202617,1323.83078 970.280742,1323.98582 L971.530742,1326.48582 C971.606445,1326.63965 971.545391,1326.82766 971.389141,1326.90453 Z M960.3125,1336.09523 L960.3125,1334.6548 C960.129375,1334.54496 960,1334.35449 960,1334.12504 C960,1333.77957 960.280781,1333.50004 960.625,1333.50004 C960.97168,1333.50004 961.25,1333.77957 961.25,1334.12504 C961.25,1334.35453 961.121836,1334.54496 960.9375,1334.6548 L960.9375,1336.09523 C961.121836,1336.20512 961.25,1336.39555 961.25,1336.62504 C961.25,1336.97051 960.97168,1337.25004 960.625,1337.25004 C960.280742,1337.25004 960,1336.97051 960,1336.62504 C960,1336.39551 960.129414,1336.20508 960.3125,1336.09523 Z M957.5,1321.625 C957.5,1321.27953 957.780781,1321 958.125,1321 L971.875,1321 C972.22168,1321 972.5,1321.27953 972.5,1321.625 C972.5,1321.97047 972.22168,1322.25 971.875,1322.25 L958.125,1322.25 C957.780781,1322.25 957.5,1321.97047 957.5,1321.625 Z M965.954609,1334.97094 L965.512734,1334.52902 L967.280313,1332.76145 L967.722188,1333.20336 L965.954609,1334.97094 Z M965.954609,1336.73852 L965.512734,1336.2966 L969.047891,1332.76145 L969.489766,1333.20336 L965.954609,1336.73852 Z M969.047852,1334.52906 L969.489727,1334.97098 L967.722148,1336.73855 L967.280273,1336.29664 L969.047852,1334.52906 Z" transform="translate(-955 -1321)"/>
</svg>
